<svg xmlns="http://www.w3.org/2000/svg" width="30" height="30" viewBox="-4 -4 30 30">
  <path d="M9.445,8.07l2.611,2.616a.376.376,0,0,1,0,.53l-.53.53a.376.376,0,0,1-.53,0L8.386,9.13,6.263,11.254l2.615,2.616a.376.376,0,0,1,0,.53l-.53.53a.376.376,0,0,1-.53,0L5.2,12.308,3.966,13.546a3.746,3.746,0,0,0-1.078,3.066l.333,2.982L.109,22.706a.376.376,0,0,0,0,.53l.53.53a.376.376,0,0,0,.53,0l3.108-3.108,2.981.333a3.731,3.731,0,0,0,3.065-1.078l8.526-8.527-6.36-6.362ZM23.891,3.7,20.179-.016a.376.376,0,0,0-.53,0l-.53.53a.376.376,0,0,0,0,.53L20.446,2.37,18.323,4.493,15.67,1.84l-.8-.8a.376.376,0,0,0-.53,0L12.754,2.632a.376.376,0,0,0,0,.53l.8.8,6.36,6.371.8.8a.376.376,0,0,0,.53,0l1.589-1.594a.376.376,0,0,0,0-.53L19.382,5.558,21.5,3.434l1.326,1.327a.376.376,0,0,0,.53,0l.53-.53A.382.382,0,0,0,23.891,3.7Z" transform="translate(0 0.125)" fill="#a62825"></path>
</svg>