<svg xmlns="http://www.w3.org/2000/svg" width="30" height="30" viewBox="-3 -5 28 28">
  <path d="M4.2,0A1.8,1.8,0,0,0,2.4,1.8V3.6H.6a.6.6,0,1,0,0,1.2h9.6a.6.6,0,1,1,0,1.2H1.8a.6.6,0,1,0,0,1.2H9A.6.6,0,0,1,9,8.4H.6a.6.6,0,1,0,0,1.2H7.8a.6.6,0,1,1,0,1.2H2.4v4.8a3.6,3.6,0,1,0,7.2,0h4.8a3.6,3.6,0,1,0,7.2,0h1.2a1.2,1.2,0,1,0,0-2.4V8.9a2.4,2.4,0,0,0-.7-1.7L19.2,4.3a2.461,2.461,0,0,0-1.7-.7H15.6V1.8A1.8,1.8,0,0,0,13.8,0ZM20.4,8.9v.7H15.6V6h1.9ZM6,17.4a1.8,1.8,0,1,1,1.8-1.8A1.8,1.8,0,0,1,6,17.4Zm13.8-1.8A1.8,1.8,0,1,1,18,13.8,1.8,1.8,0,0,1,19.8,15.6Z" fill="#a62825"></path>
</svg>