<svg id="Layer_1" xmlns="http://www.w3.org/2000/svg" version="1.1" viewBox="0 0 320 320">
  <defs>
    <style>
      .st0 {
        fill: #ad1501;
      }
    </style>
  </defs>
  <path class="st0" d="M101.16,311.33h-61.27c-2.4,0-4.34,1.94-4.34,4.34s1.94,4.34,4.34,4.34h61.27c2.4,0,4.34-1.94,4.34-4.34s-1.94-4.34-4.34-4.34Z"></path>
  <path class="st0" d="M70.52,84.76c-22.39,0-35.02,38.27-36.34,76.46h-4.53v127.06c0,9.66,7.86,17.53,17.53,17.53h46.7c9.66,0,17.52-7.86,17.52-17.53v-127.06h-4.53c-1.32-38.19-13.96-76.46-36.34-76.46ZM66.18,108.83v52.39h-6.66c.49-22.65,3.53-40.82,6.66-52.39ZM66.18,174.23v118.57h-6.74v-118.57h6.74ZM93.87,161.22h-19.02v-61.73c8.38,6.11,17.88,28.69,19.02,61.73ZM55.61,115.78c-2.79,13.78-4.4,30.44-4.76,45.44h-3.68c.65-18.97,4.07-34.48,8.44-45.44ZM42.66,288.28v-114.05h8.11v118.57h-3.59c-2.49,0-4.51-2.02-4.51-4.51ZM93.87,292.8h-19.02v-118.57h23.52v114.05c0,2.49-2.02,4.51-4.51,4.51Z"></path>
  <path class="st0" d="M280.11,311.33h-61.27c-2.4,0-4.34,1.94-4.34,4.34s1.94,4.34,4.34,4.34h61.27c2.4,0,4.34-1.94,4.34-4.34s-1.94-4.34-4.34-4.34Z"></path>
  <path class="st0" d="M286.62,221.9v-123.37c0-7.72-6.29-14-14.01-14h-46.27c-7.72,0-14,6.28-14,14v123.37h-3.74v66.38c0,9.66,7.86,17.53,17.53,17.53h46.7c9.66,0,17.53-7.86,17.53-17.53v-66.38h-3.74ZM273.61,98.54v123.37h-5.83v-124.36h4.83c.55,0,1,.44,1,.99ZM234.44,234.91h3.37v57.88h-3.37v-57.88ZM239.85,221.9v-124.36h5.31v124.36h-5.31ZM253.84,97.55h5.27v124.36h-5.27v-124.36ZM225.35,98.54c0-.55.44-.99.99-.99h4.84v124.36h-5.83v-123.37ZM221.61,288.28v-53.37h4.15v57.81c-2.31-.19-4.15-2.08-4.15-4.44ZM277.34,288.28c0,2.49-2.02,4.51-4.51,4.51h-26.34v-57.88h30.86v53.37Z"></path>
  <path class="st0" d="M190.83,311.33h-61.27c-2.4,0-4.34,1.94-4.34,4.34s1.94,4.34,4.34,4.34h61.27c2.4,0,4.34-1.94,4.34-4.34s-1.94-4.34-4.34-4.34Z"></path>
  <path class="st0" d="M190.8,62.15h-4.26c-1.15-39.63-10.6-62.15-26.33-62.15s-25.2,22.52-26.34,62.15h-4.26v46.5l-10.27,10.27v171.48c0,8.49,6.91,15.4,15.4,15.4h50.95c8.49,0,15.4-6.91,15.4-15.4V118.93l-10.27-10.32v-46.46ZM155.87,113.33l-2.38,10.39-.11,169.08h-5.89V125.79l5.96-10.87v-38.02h2.41v36.41ZM153.52,62.15c.25-15.16,1.18-26.19,2.35-34.1v34.1h-2.35ZM173.5,62.15h-8.96V16.66c3.87,5.95,8.18,19.8,8.96,45.49ZM132.34,290.41V124.32l10.27-10.27v-37.13h2.17v35.79l-5.96,10.87v169.23h-4.09c-1.31,0-2.39-1.07-2.39-2.39ZM188.06,290.41c0,1.32-1.08,2.39-2.39,2.39h-23.62V125.17l2.38-10.39.02-8.86h.09v-29.01h13.25v37.08l10.27,10.32v166.1Z"></path>
</svg>
