<svg aria-hidden="true" focusable="false" version="1.1" id="Layer_1" xmlns="http://www.w3.org/2000/svg" xmlns:xlink="http://www.w3.org/1999/xlink" x="0px" y="0px" viewBox="0 0 320 320" style="enable-background:new 0 0 320 320;" xml:space="preserve">
<style type="text/css">
	.st0{fill:#AD1501;}
</style>
<path class="st0" d="M99.76,110.33h46.32l-8.46,32.63l-25.24,8.6L99.76,110.33z M320,25.19v269.62h-64.3l-7.22-92.52l-7.22,92.52
	h-64.3v-30.58H55.53V147.59l-11.55,11.54L0,115.16l59.4-59.39h44.23l1.28,5.03c2.11,8.29,9.52,14.07,18.01,14.07
	c8.49,0,15.9-5.79,18.01-14.07l1.28-5.03h34.75V25.19H320z M176.96,115.35l24.9,24.9l25.09-25.1l-46.04-46.04h-28.78
	c-5.04,11.47-16.41,19.1-29.22,19.1s-24.17-7.64-29.22-19.1H64.92l-46.04,46.04l25.09,25.1l24.9-24.9v135.53h108.08V115.35z
	 M228.91,281.46l1.5-19.24h-40.09v19.24H228.91z M241.55,119.44l-39.69,39.69l-11.55-11.54v105.73h40.79L241.55,119.44z
	 M265.86,253.32h40.79V38.54h-55.21v39.21h-8.9V38.54h-52.22v21.1l55.52,55.52l-0.81,0.81h10.11L265.86,253.32z M306.65,281.46
	v-19.24h-40.1l1.5,19.24H306.65z"></path>
</svg>