<svg id="Layer_1" xmlns="http://www.w3.org/2000/svg" version="1.1" viewBox="0 0 320 320">
  <defs>
    <style>
      .st0 {
        fill: #ad1501;
      }
    </style>
  </defs>
  <path class="st0" d="M276.9,193.3h-9.1v-42.3c0-11.1-9-20.1-20.1-20.1s-15.4,5-18.5,12.2v-12.2h-7.1l6.6-33.3c.5-2.4-.4-4.8-2.4-6.3l-20.5-15.3c-1.8-1.3-4.3-1-5.6.8-1.3,1.8-1,4.3.8,5.6l19.7,14.7-6.7,33.6c0,0,0,.1,0,.2h-2.4v-8.1c0-9.7-7.6-17.5-17.1-18l-9.7-37.8c-2-7.6-8.8-12.9-16.6-12.9h-16.7c-8,0-14.9,5.4-16.7,13.2l-8.9,37.4c-9.8.3-17.6,8.3-17.6,18.1v8.1h-2.4c0,0,0-.1,0-.2l-6.7-33.6,19.7-14.7c1.8-1.3,2.1-3.8.8-5.6s-3.8-2.1-5.6-.8l-20.5,15.3c-1.9,1.4-2.9,3.9-2.4,6.3l6.6,33.3h-7v12c-3.1-7.1-10.2-12-18.4-12h-.1c-11.1,0-20.1,9-20.1,20.1v42.3h-9l-28.3,15.8v29.1h41.2v12.3c0,8.5,6.9,15.4,15.4,15.4h1.7c8.5,0,15.4-6.9,15.4-15.4v-12.2h142.9v10.5c0,8.5,6.9,15.4,15.4,15.4h1.7c8.5,0,15.4-6.9,15.4-15.4v-10.6h41.2v-29.1l-28.3-15.8ZM235.7,149.5c.7-6,5.8-10.6,12-10.6h0c6.7,0,12.1,5.4,12.1,12.1v42.3h-24.2v-43.8ZM227.7,152.1v41.2h-19.3v-41.2h19.3ZM142.5,69.1c1-4.1,4.6-7,8.9-7h16.7c4.1,0,7.8,2.8,8.8,6.9l8.8,34.3h-51.3l8.1-34.2ZM116.2,122.8c0-5.6,4.5-10.1,10.1-10.1h67.1c5.6,0,10.1,4.5,10.1,10.1v8h-87.3v-8ZM98.8,138.9h122.4v5.2h-20.8v31.9h-78.7v-31.9h-22.9v-5.2ZM200.4,184v9.4h-78.7v-9.4h78.7ZM94.4,152.1h19.3v41.2h-19.3v-41.2ZM92.8,201.4h135v12.4H92.8v-12.4ZM60.2,151c0-6.7,5.4-12.1,12.1-12.1h.1c6.7,0,12.1,5.4,12.1,12.1v42.3h-24.3v-42.3ZM57.2,230.2H22.9v-16.5l22.3-12.5h39.6v12.7h-8.4v-4.9h-8v11.9c-5.1,1-9.2,4.6-11.2,9.3ZM80.5,250.5c0,4.1-3.3,7.4-7.4,7.4h-1.7c-4.1,0-7.4-3.3-7.4-7.4v-14.5c0-4.1,3.3-7.4,7.4-7.4h1.7c4.1,0,7.4,3.3,7.4,7.4v14.5ZM232.6,230.3H87.4c-1.5-3.8-4.4-6.8-8.1-8.4h161.3c-3.7,1.6-6.6,4.6-8.1,8.4ZM256,248.8c0,4.1-3.3,7.4-7.4,7.4h-1.7c-4.1,0-7.4-3.3-7.4-7.4v-12.8c0-4.1,3.3-7.4,7.4-7.4h0s1.7,0,1.7,0c4.1,0,7.4,3.3,7.4,7.4v12.8ZM297.1,230.2h-34.2c-1.9-4.7-6.1-8.2-11.2-9.3v-11.9h-8v4.9h-7.9v-12.7h39l22.3,12.5v16.5Z"></path>
</svg>