<svg aria-hidden="true" focusable="false" version="1.1" id="Layer_1" xmlns="http://www.w3.org/2000/svg" xmlns:xlink="http://www.w3.org/1999/xlink" x="0px" y="0px" viewBox="0 0 320 320" style="enable-background:new 0 0 320 320;" xml:space="preserve">
<style type="text/css">
	.st0{fill:#AD1501;}
</style>
<path class="st0" d="M299.09,258.79v-9.01c0-14.58-9.8-27.53-24.21-31.59l-36.57-7.99c7.97-5.52,13.21-14.7,13.21-25.1v-10.85
	c0-16.85-13.71-30.55-30.55-30.55h-4.26c0-0.06,0.03-0.1,0.03-0.16c0-3.6-2.91-6.51-6.51-6.51H159.8c-3.6,0-6.51,2.92-6.51,6.51
	c0,0.06,0.03,0.11,0.03,0.16h-4.27c-16.84,0-30.55,13.71-30.55,30.55v9.78l-28.61-6.25c-1.09-0.31-2.19-0.34-3.29-0.53L39.86,1.08H0
	V14.1h29.84l43.4,163.51c-4.25,1.05-8.34,2.82-11.97,5.56c-8.25,6.24-12.98,15.75-12.98,26.1v6.35
	c-25.54,3.22-45.37,25.03-45.37,51.42c0,28.61,23.27,51.88,51.88,51.88c17.04,0,32.13-8.29,41.6-21.01h163.43
	c4.17,12.18,15.61,21.01,29.19,21.01c17.08,0,30.98-13.89,30.98-30.97C320,274.41,311.22,263,299.09,258.79z M195.27,200.8
	c3.6-1.58,6.7-4.01,9.21-6.96H241c-3.16,7.21-10.11,12.31-18.31,12.96L195.27,200.8z M185.02,194.28c-1.12,0-2.22-0.12-3.29-0.33
	v-33.28c1.06-0.21,2.16-0.33,3.29-0.33c1.12,0,2.22,0.12,3.29,0.33v33.28C187.24,194.16,186.14,194.28,185.02,194.28z M196.99,165.3
	c3.09,3.07,5,7.32,5,12.01c0,4.69-1.91,8.93-5,12.01V165.3z M173.05,189.32c-3.08-3.07-5-7.32-5-12.01c0-4.69,1.91-8.94,5-12.01
	V189.32z M210.58,176.39h32.27v8.71c0,0.02,0,0.03,0,0.05h-33.53c0.81-2.48,1.35-5.09,1.35-7.84
	C210.67,177,210.59,176.7,210.58,176.39z M241.74,167.7h-32.97c-3.1-7.64-9.77-13.42-17.94-15.32h30.16
	C230.75,152.38,238.94,158.86,241.74,167.7z M149.06,152.38h30.16c-8.17,1.9-14.84,7.68-17.94,15.32H128.3
	C131.1,158.86,139.29,152.38,149.06,152.38z M127.19,176.39h32.27c-0.01,0.31-0.09,0.61-0.09,0.93c0,6.59,2.57,12.55,6.67,17.1
	l-38.85-8.49V176.39z M15.95,267.04c0-21.41,17.42-38.84,38.83-38.85h0.02c21.42,0,38.85,17.43,38.85,38.85
	c0,2.31-0.3,4.54-0.68,6.74c-0.16,0.84-0.34,1.67-0.55,2.5c-0.31,1.27-0.72,2.49-1.15,3.71c-0.99,2.73-2.2,5.39-3.8,7.89l-0.91,1.42
	c-7.04,10.01-18.62,16.59-31.75,16.59C33.38,305.9,15.95,288.47,15.95,267.04z M105.8,276.34c0.04-0.23,0.06-0.46,0.11-0.69
	c0.47-2.81,0.77-5.67,0.78-8.6c0,0,0,0,0,0l0,0v0c0-3.1-0.33-6.13-0.85-9.08c-0.05-0.28-0.08-0.56-0.13-0.83
	c-0.55-2.8-1.35-5.5-2.32-8.12c-0.14-0.38-0.27-0.75-0.42-1.13c-1.01-2.53-2.22-4.94-3.6-7.26c-0.22-0.38-0.45-0.76-0.69-1.14
	c-1.42-2.26-3.02-4.41-4.77-6.42c-0.28-0.32-0.57-0.63-0.86-0.95c-1.83-1.99-3.78-3.86-5.89-5.56c-0.27-0.21-0.55-0.4-0.81-0.61
	c-2.23-1.71-4.57-3.29-7.06-4.63c-0.13-0.07-0.27-0.12-0.4-0.19c-2.54-1.34-5.2-2.47-7.96-3.38c-0.15-0.05-0.29-0.11-0.45-0.16
	c-2.73-0.87-5.58-1.47-8.49-1.87c-0.23-0.03-0.44-0.12-0.67-0.15v-6.31c0-6.23,2.85-11.95,7.81-15.71
	c4.96-3.76,11.25-4.94,17.61-3.15l184.99,40.42c8.44,2.38,14.34,10.18,14.34,18.96v7.33c-0.64,0.06-1.25,0.25-1.88,0.35
	c-0.79,0.12-1.57,0.25-2.34,0.43c-1.16,0.28-2.27,0.65-3.38,1.05c-0.7,0.25-1.4,0.47-2.07,0.78c-1.17,0.52-2.26,1.16-3.35,1.82
	c-0.53,0.32-1.08,0.58-1.59,0.93c-1.54,1.06-2.99,2.24-4.31,3.56c-0.13,0.13-0.22,0.28-0.35,0.42c-1.18,1.21-2.26,2.51-3.23,3.91
	c-0.37,0.54-0.66,1.13-1,1.69c-0.64,1.06-1.26,2.11-1.76,3.24c-0.31,0.69-0.54,1.41-0.8,2.12c-0.4,1.08-0.76,2.17-1.03,3.31
	c-0.19,0.78-0.32,1.58-0.45,2.38c-0.1,0.6-0.28,1.17-0.34,1.79h-6.67V281c0-15.56-11.66-28.62-27.13-30.36l-105.89-11.92v46.16
	h-15.05C104.47,282.13,105.27,279.29,105.8,276.34z M127.19,284.88v-36.45l96.24,10.83c11.07,1.25,19.42,10.59,19.42,21.73v3.89
	H127.19z M289.02,305.9c-8.5,0-15.6-5.95-17.45-13.9l-0.27-1.9c-0.1-0.71-0.23-1.41-0.23-2.15c0-9.9,8.05-17.95,17.95-17.95
	c0.84,0,1.65,0.14,2.6,0.28l1.49,0.22c7.93,1.86,13.87,8.95,13.87,17.44C306.97,297.85,298.92,305.9,289.02,305.9z"></path>
</svg>