<svg xmlns="http://www.w3.org/2000/svg" version="1.1" viewBox="0 0 80 81">
  <defs>
    <style>
      .cls-1 {
        fill: #a02817;
      }
    </style>
  </defs>
  <g>
    <g id="Layer_1">
      <g>
        <path class="cls-1" d="M45.4,37.6v5.9h5.9v10.4h-5.9v5.9h-10.4v-5.9h-5.9v-10.4h5.9v-5.9h10.4ZM37,45.5h-5.9v6.4h5.9v5.9h6.4v-5.9h5.9v-6.4h-5.9v-5.9h-6.4v5.9Z"></path>
        <rect class="cls-1" x="19.4" y="74.2" width="41.7" height="3.3"></rect>
        <path class="cls-1" d="M15.7,25.8v-.2c0,0-8.8-15.1-8.8-15.1-.6-1-.8-2.2-.5-3.4.3-1.2,1-2.1,2.1-2.7.7-.4,1.4-.6,2.2-.6,1.6,0,3.1.9,3.8,2.2l9.8,17h3.9L17.5,4.4c-1.4-2.4-3.9-3.9-6.7-3.9s-2.4.3-3.5.9l-.4.2c-1.8,1-3.1,2.7-3.6,4.7-.5,2-.3,4.1.8,5.9l7.6,13.1.3.5H0v14.4h4.1v.3c.8,13.4,9.1,25.5,21.5,30.9v-3.7c-10.5-5.2-17.5-15.7-18.1-27.4l-.2-3.5h-3.9v-7.7h73.3v7.7h-3.9l-.2,3.5c-.6,11.7-7.6,22.2-18.1,27.4v3.7c12.3-5.4,20.7-17.5,21.4-30.9v-.3h4.1v-14.4H15.7Z"></path>
      </g>
    </g>
  </g>
</svg>