<svg aria-hidden="true" focusable="false" version="1.1" id="Layer_1" xmlns="http://www.w3.org/2000/svg" xmlns:xlink="http://www.w3.org/1999/xlink" x="0px" y="0px" viewBox="0 0 320 320" style="enable-background:new 0 0 320 320;" xml:space="preserve">
<style type="text/css">
	.st0{fill:#AD1501;}
</style>
<g>
	<path class="st0" d="M51.73,209.64c-9.86,0-19.83-4.95-28.62-14.33c-9.76-10.42-17.04-25.32-20.52-41.96
		c-7.54-36.1,4.87-68.2,28.25-73.08c23.38-4.89,47.61,19.57,55.15,55.66v0c3.48,16.64,2.76,33.21-2.01,46.66
		c-5.17,14.58-14.49,23.96-26.25,26.42C55.74,209.43,53.74,209.64,51.73,209.64z M36.82,92.84c-1.1,0-2.2,0.11-3.28,0.34
		c-15.61,3.26-23.87,29.58-18.04,57.48c2.99,14.3,9.11,26.96,17.24,35.64c7.31,7.8,15.23,11.29,22.31,9.81
		c7.08-1.48,12.94-7.84,16.52-17.92c3.97-11.21,4.52-25.26,1.53-39.56C67.66,112.67,51.6,92.84,36.82,92.84z"></path>
	<path class="st0" d="M117.08,130.72c-10.42,0-20.72-5.56-29.43-15.98c-9.15-10.96-15.58-26.25-18.1-43.05
		c-2.53-16.81-0.87-33.31,4.65-46.47c5.99-14.26,15.83-23.1,27.7-24.89c11.85-1.78,23.87,3.77,33.79,15.65
		c9.15,10.96,15.58,26.25,18.1,43.05c2.53,16.81,0.87,33.31-4.65,46.47c-5.99,14.26-15.83,23.1-27.7,24.89
		C120,130.61,118.54,130.72,117.08,130.72z M106.21,13.19c-0.79,0-1.56,0.06-2.34,0.17c-7.15,1.07-13.37,7.1-17.5,16.95
		c-4.6,10.96-5.94,24.96-3.77,39.41c2.17,14.45,7.56,27.44,15.18,36.56c6.85,8.21,14.56,12.14,21.72,11.06
		c7.15-1.07,13.37-7.1,17.5-16.95c4.6-10.96,5.94-24.96,3.77-39.41v0c-2.17-14.45-7.56-27.44-15.18-36.56
		C119.47,17.11,112.68,13.19,106.21,13.19z"></path>
	<path class="st0" d="M268.24,209.78c-2.02,0-4.04-0.21-6.05-0.63c-23.37-4.91-35.74-37.03-28.16-73.12v0
		c7.59-36.09,31.84-60.5,55.22-55.59c11.75,2.47,21.06,11.87,26.21,26.45c4.75,13.46,5.44,30.03,1.95,46.67
		c-3.5,16.63-10.8,31.52-20.57,41.93C288.06,204.85,278.09,209.78,268.24,209.78z M246.94,138.74
		c-5.86,27.89,2.37,54.23,17.97,57.51c7.08,1.49,15-1.99,22.32-9.78c8.14-8.67,14.28-21.32,17.28-35.62
		c3.01-14.3,2.48-28.35-1.48-39.56c-3.56-10.08-9.42-16.46-16.49-17.94C270.96,90.07,252.81,110.85,246.94,138.74L246.94,138.74z"></path>
	<path class="st0" d="M202.98,130.77c-1.46,0-2.93-0.11-4.4-0.33c-23.62-3.58-37.79-34.94-32.26-71.4v0
		c5.53-36.46,28.37-62.21,51.97-58.63c23.62,3.58,37.79,34.94,32.26,71.4C245.37,105.99,224.97,130.77,202.98,130.77z M179.35,61.01
		L179.35,61.01c-4.27,28.18,5.44,54,21.2,56.39c15.75,2.39,32.7-19.4,36.97-47.58c4.27-28.18-5.44-54-21.2-56.39
		C200.54,11.05,183.63,32.83,179.35,61.01z"></path>
	<path class="st0" d="M268.47,320c-9.93,0-22.31-3.72-37.33-8.24c-20.02-6.02-44.94-13.51-71.23-13.53c-0.03,0-0.06,0-0.09,0
		c-26.26,0-51.15,7.45-71.16,13.43c-23.75,7.1-40.9,12.24-52.18,3.83c-6.34-4.72-9.42-12.96-9.41-25.17
		c0.01-18.31,6.89-33.26,20.45-44.42c0.22-0.17,5.29-3.98,7.2-5.18c41.01-28.88,53.91-48.67,54.04-48.87
		c11.57-16.21,30.64-25.71,51.21-25.71c0.02,0,0.03,0,0.04,0c20.59,0.01,39.66,9.53,51.01,25.47c0.33,0.5,13.21,20.31,54.48,49.44
		c1.62,1.01,6.67,4.82,6.67,4.82l0.22,0.18c13.54,11.18,20.4,26.13,20.39,44.44c-0.01,12.21-3.1,20.44-9.44,25.16
		C279.17,318.74,274.23,320,268.47,320z M159.82,285.05c0.03,0,0.07,0,0.1,0c28.22,0.02,54.17,7.82,75.02,14.09
		c17.76,5.34,34.54,10.39,40.52,5.94c2.73-2.03,4.12-6.94,4.12-14.59c0.01-14.34-5.06-25.52-15.5-34.19
		c-0.71-0.54-4.43-3.34-5.92-4.29c-44.09-31.11-57.56-52.2-58.11-53.08c-8.66-12.14-23.72-19.59-40.06-19.6
		c-16.52,0.07-31.41,7.42-40.31,19.88c-0.33,0.55-13.83,21.62-57.67,52.49c-1.95,1.23-6.33,4.55-6.33,4.55
		c-10.3,8.49-15.41,19.69-15.42,34.08c0,7.65,1.38,12.56,4.1,14.59c5.97,4.45,22.76-0.57,40.53-5.89
		C105.71,292.81,131.63,285.05,159.82,285.05z"></path>
</g>
</svg>
