<svg aria-hidden="true" focusable="false" version="1.1" id="Layer_1" xmlns="http://www.w3.org/2000/svg" xmlns:xlink="http://www.w3.org/1999/xlink" x="0px" y="0px" viewBox="0 0 320 320" style="enable-background:new 0 0 320 320;" xml:space="preserve">
<style type="text/css">
	.st0{fill:#AD1501;}
</style>
<g>
	<path class="st0" d="M164.7,0.1l-1.8,3.6c-0.3,0.6-3.2,6-12,6c-8.8,0-11.7-5.4-11.9-5.8L137.3,0L89,0C37.4,0,8.1,29.7,1.8,48.3
		c-3.7,11,0.9,16.1,3.1,17.8c3.8,2.9,10.9,4.5,23.4-3.9c13.6-9.1,26.1-12.2,37.1-9.3c16.9,4.5,25.7,21.9,25.8,22l1.6,3.2V320h45.5
		V78.1l1-4.7c2.7-12.8,7-20.7,12-22.2c5.8-1.8,12.8,4.8,12.9,4.8l1.9,1.9l35.9-0.1V0h-33.3L164.7,0.1z M125.3,266.4l-19.5,13v-33.1
		l19.5-13V266.4z M125.3,222.9l-19.5,13v-33.1l19.5-13V222.9z M125.3,179.4l-19.5,13v-33.1l19.5-13V179.4z M125.3,135.8l-19.5,13
		v-33.1l19.5-13V135.8z M125.3,92.3l-19.5,13V78.6h19.5V92.3z M105.8,307v-17.1l19.5-13V307H105.8z M172.4,13H189v31.9l-17.9,0
		c-4.1-3.2-13.5-9.2-23.6-6.1c-9.1,2.7-15.7,11.8-19.8,26.8h-27C96.7,58.9,86.3,45.1,69,40.4c-14.9-4-31-0.3-47.9,11
		c-3.7,2.5-6.2,3.5-7.6,3.9c0.3-2.2,1.8-6.6,5.9-12.2C24.7,36.1,45.3,13,89,13l40.4,0c3.6,4.7,10.6,9.8,21.5,9.8
		C161.7,22.8,168.7,17.7,172.4,13z"></path>
	<path class="st0" d="M311.3,240.9c-3.3-5-7.3-9.3-12-12.9V99.3c0-6.9,4.1-13.8,8.8-21.6c6.1-10,8.5-21.9,6.9-33.5
		c-3-20.2-17.7-36.7-37.5-42c-9.3-2.5-19.2-2.3-28.4,0.7l-10.4,3.3l35,33.8l-4.2,15.6l-15.8,4.2L219,26.2l-3.2,10
		c-6.3,19.9,0,41.4,15.7,54.3c3.9,3.8,6.2,9.2,6.2,14.7V228c-21.2,16-26.7,46-12,68.6c9.8,15,26.2,23.2,42.9,23.2
		c9.5,0,19.2-2.7,27.8-8.2C320,296.1,326.7,264.5,311.3,240.9z M289.3,300.6c-17.6,11.4-41.2,6.4-52.6-11.1
		c-11.4-17.6-6.4-41.2,11.1-52.6l3-1.9V105.1c0-9-3.7-17.7-10.5-24.3c-9-7.4-13.8-18.2-13.8-29.4l23.7,22.8l30.2-8l8.1-30.3
		l-23.3-22.5c3.1,0,6.1,0.5,9.1,1.3c14.7,4,25.7,16.3,28,31.3c1.2,8.6-0.6,17.5-5.5,25.5c-4.8,8.1-10.3,17.3-10.3,27.8v135.6l3,1.9
		c4.5,2.9,8.2,6.7,11.1,11.1C311.9,265.5,306.9,289.2,289.3,300.6z"></path>
	<path class="st0" d="M254.7,245.4l-14.1,23.5l14.1,23.5h27.6l14.1-23.5l-14.1-23.5H254.7z M277.5,283.7h-17.8l-8.9-14.8l8.9-14.8
		h17.8l8.9,14.8L277.5,283.7z"></path>
	<rect x="264.2" y="108.4" class="st0" width="8.7" height="106.5"></rect>
</g>
</svg>