<svg aria-hidden="true" focusable="false" id="Layer_1" data-name="Layer 1" xmlns="http://www.w3.org/2000/svg" viewBox="0 0 515 77.95">
  <defs>
    <style>
      .carhartt-cls-1 {
        fill: #231f20;
      }
      .carhartt-cls-1, .carhartt-cls-2 {
        stroke-width: 0px;
      }
      .carhartt-cls-2 {
        fill: #fcb813;
      }
    </style>
  </defs>
  <path class="carhartt-cls-1" d="M21.18,42.82h29.13v-9.67s-23.91-.01-27.1,0C8.91,33.19-.01,42.3,0,55.15c.02,12.82,9.57,21.88,23.86,21.85h26.45v-9.62h-29.5c-4.28,0-9.83-5.36-9.83-12.27s5.56-12.29,10.2-12.29Z"></path>
  <g>
    <rect class="carhartt-cls-1" x="172.52" y="22.2" width="10.81" height="54.81"></rect>
    <path class="carhartt-cls-1" d="M188.4,43.51c1.74-.55,6.87-3.4,14.61-1.9,7.75,1.53,12.99,10.35,2.91,32.86-1.64,3.05,2.96,3.48,2.96,3.48l7.4-.88s12.39-26.11,2.67-37.17c-9.72-11.06-29.7-6.62-31.01-5.78-2.73,1.75-1.29,9.93.46,9.4"></path>
  </g>
  <polygon class="carhartt-cls-1" points="377.5 33.16 362.38 33.16 362.38 24.95 351.41 24.95 351.41 33.16 341.93 33.16 341.93 43.24 351.41 43.24 351.41 77.01 362.38 77.01 362.38 43.24 377.5 43.24 377.5 33.16"></polygon>
  <polygon class="carhartt-cls-1" points="419.96 33.16 404.84 33.16 404.84 24.95 393.87 24.95 393.87 33.16 384.39 33.16 384.39 43.24 393.87 43.24 393.87 77.01 404.84 77.01 404.84 43.24 419.96 43.24 419.96 33.16"></polygon>
  <path class="carhartt-cls-1" d="M113.6,47.29c0-6.43-5.53-14.14-16.28-14.14h-35.24s0,9.69,0,9.69h35.16c3.42,0,5.38,1.87,5.38,4.33v20.19h-31.21c-3.29,0-5.38-2.02-5.38-4.48s1.96-4.32,5.38-4.32h27.38v-9.26s-20.02-.03-27.4-.03c-10.75,0-16.3,7.72-16.3,14.14.02,8.13,7.46,13.6,16.47,13.58h42.04v-29.71Z"></path>
  <path class="carhartt-cls-1" d="M285.07,47.29c0-6.43-5.54-14.14-16.28-14.14h-35.24s0,9.69,0,9.69h35.16c3.42,0,5.38,1.87,5.38,4.33v20.19h-31.21c-3.29,0-5.38-2.02-5.38-4.48s1.96-4.32,5.38-4.32h27.38v-9.26s-20.02-.03-27.4-.03c-10.75,0-16.3,7.72-16.3,14.14.02,8.13,7.46,13.6,16.47,13.58h42.04v-29.71Z"></path>
  <g>
    <rect class="carhartt-cls-1" x="120.45" y="33.16" width="10.87" height="43.85"></rect>
    <path class="carhartt-cls-1" d="M136.31,43.64c1.74-.55,4.4-3.4,12.14-1.9,4.94.97,7.96,4.5,7.62,13.07-.09,2.33,10.35,1.51,10.36-.27.05-7.01.92-12.03-5.09-17.56-7.4-6.81-24.16-3.57-25.48-2.73-2.73,1.75-1.29,9.93.46,9.4"></path>
  </g>
  <g>
    <rect class="carhartt-cls-1" x="291.92" y="33.16" width="10.87" height="43.85"></rect>
    <path class="carhartt-cls-1" d="M307.78,43.64c1.74-.55,4.4-3.4,12.14-1.9,4.94.97,7.96,4.5,7.62,13.07-.09,2.33,10.35,1.51,10.36-.27.05-7.01.92-12.03-5.09-17.56-7.4-6.81-24.16-3.57-25.48-2.73-2.73,1.75-1.29,9.93.46,9.4"></path>
  </g>
  <g id="C_In_Back" data-name="C In Back">
    <path class="carhartt-cls-2" d="M484.87,34.91c-7.09-2.15-11-9.96-8.73-17.45.79-2.6,2.21-4.81,4.03-6.51,0,0,4.74-4.65,12.2-2.07-.08,0-.17,0-.24,0-4.52,0-8.18,4.04-8.18,9.02s3.67,9.02,8.18,9.02c3.56,0,6.59-2.52,7.71-6.03h0s.26-.76.41-1.99c.02-.21.05-.46.05-.46.28-3.14-.27-8.71-6.4-13.14C485.56-.58,473.84.02,473.84.02c-20.82,0-37.7,17.25-37.7,38.53s16.88,38.51,37.7,38.51h27.98V25.23c-2.27,7.5-9.85,11.83-16.94,9.68"></path>
  </g>
  <path class="carhartt-cls-1" d="M510.69,68.45c2.34,0,4.31,1.85,4.31,4.28s-1.97,4.33-4.31,4.33-4.34-1.86-4.34-4.33,1.98-4.28,4.34-4.28ZM510.69,76.42c1.99,0,3.53-1.59,3.53-3.7s-1.54-3.65-3.53-3.65-3.56,1.58-3.56,3.65,1.54,3.7,3.56,3.7ZM509.01,70.23h1.94c1.19,0,1.76.47,1.76,1.43s-.58,1.3-1.33,1.37l1.43,2.23h-.84l-1.37-2.17h-.83v2.17h-.78v-5.03ZM509.79,72.46h.78c.81,0,1.32-.18,1.32-.83,0-.67-.57-.77-1.1-.77h-1.04v1.59Z"></path>
</svg>