<svg id="Layer_1" xmlns="http://www.w3.org/2000/svg" width="5.9in" height="1.6in" version="1.1" viewBox="0 0 424 116.5">
  <g>
    <path fill="#001738" d="M0,0h40l23.5,39.3L87,0h39.8l-45.3,67.7v48.8s-36.1,0-36.1,0v-48.8S0,0,0,0Z"></path>
    <path fill="#001738" d="M134.9,0h96.5v28.7h-60.4v16.6h52.7s0,26.3,0,26.3h-52.7v16.6h62.1s0,28.3,0,28.3h-98.2V0Z"></path>
    <path fill="#001738" d="M245.1,0h109.4v28.7h-36.7s0,87.8,0,87.8h-36V28.7h-36.7V0Z"></path>
    <path fill="#001738" d="M367.5,0h36.1v116.5s-36.1,0-36.1,0V0Z"></path>
  </g>
  <path fill="#001738" d="M408.6,5.6c.4-1,1-1.8,1.8-2.5.7-.7,1.6-1.3,2.6-1.7,1-.4,2-.6,3.1-.7,1.1,0,2.1.2,3.1.5,1,.4,1.8.9,2.5,1.6.7.7,1.3,1.5,1.7,2.4.4,1,.6,2,.6,3.1,0,1.1-.2,2.2-.7,3.2-.4,1-1,1.8-1.7,2.5-.7.7-1.6,1.3-2.6,1.7-1,.4-2,.6-3.1.7-1.1,0-2.1-.2-3.1-.5-1-.4-1.8-.9-2.6-1.6-.7-.7-1.3-1.5-1.7-2.5-.4-1-.6-2-.6-3.1,0-1.1.2-2.1.7-3.1ZM409.9,11.3c.3.8.8,1.5,1.4,2.1.6.6,1.3,1.1,2.1,1.4.8.3,1.7.5,2.6.5.9,0,1.8-.2,2.6-.6.8-.4,1.5-.8,2.1-1.5.6-.6,1.1-1.3,1.4-2.2.3-.8.5-1.7.5-2.7,0-.9-.2-1.8-.5-2.6-.3-.8-.8-1.5-1.4-2.1-.6-.6-1.3-1-2.1-1.4-.8-.3-1.6-.5-2.6-.5-.9,0-1.8.2-2.6.6-.8.4-1.5.8-2.1,1.4-.6.6-1.1,1.3-1.4,2.1-.3.8-.5,1.7-.5,2.6,0,1,.2,1.9.5,2.7ZM416.5,4c1.1,0,1.9.2,2.5.6.5.4.8,1.1.8,2,0,.8-.2,1.4-.7,1.8-.5.4-1,.6-1.7.7l2.6,4h-1.6s-2.5-3.9-2.5-3.9h-1.5s0,4,0,4h-1.4s0-9.2,0-9.2h3.6ZM415.8,8.1c.3,0,.6,0,.9,0,.3,0,.5,0,.8-.2.2-.1.4-.3.6-.5.1-.2.2-.5.2-.9s0-.6-.2-.7c-.1-.2-.3-.3-.5-.4-.2-.1-.4-.2-.7-.2-.2,0-.5,0-.7,0h-1.9s0,3,0,3h1.5Z"></path>
</svg>