<svg aria-hidden="true" focusable="false" id="Layer_1" data-name="Layer 1" xmlns="http://www.w3.org/2000/svg" viewBox="0 0 505 103.46">
  <defs>
    <style>
      .purina-cls-1 { fill: #fff; stroke: #ec1c24; stroke-width: 3.05px; }
      .purina-cls-2 { fill: #231f20; }
      .purina-cls-2, .purina-cls-3, .purina-cls-4 { stroke-width: 0px; }
      .purina-cls-3 { fill: #fff; }
      .purina-cls-4 { fill: #ec1c24; }
    </style>
  </defs>
  <g>
    <g>
      <g>
        <rect class="purina-cls-3" width="97.14" height="96.93"></rect>
        <rect class="purina-cls-1" x="4.62" y="4.85" width="88.02" height="88.02"></rect>
        <rect class="purina-cls-4" x="9.69" y="9.95" width="25.76" height="25.76"></rect>
        <rect class="purina-cls-4" x="35.45" y="35.71" width="25.75" height="25.76"></rect>
        <rect class="purina-cls-4" x="61.2" y="9.95" width="25.78" height="25.76"></rect>
        <rect class="purina-cls-4" x="9.7" y="61.47" width="25.75" height="25.75"></rect>
        <rect class="purina-cls-4" x="61.2" y="61.47" width="25.78" height="25.75"></rect>
        <path class="purina-cls-2" d="M106.19,87.85c.73.73,1.11,1.68,1.11,2.71s-.38,2-1.11,2.71c-.77.74-1.74,1.15-2.74,1.15s-1.98-.41-2.71-1.15c-.73-.72-1.12-1.68-1.12-2.71s.41-1.99,1.16-2.75c.7-.71,1.64-1.1,2.68-1.1s2.01.38,2.75,1.13ZM105.87,88.17c-.66-.66-1.49-1-2.43-1s-1.73.34-2.36.97c-.67.66-1.02,1.54-1.02,2.42s.36,1.73,1.01,2.39c.65.66,1.49.99,2.37.99s1.76-.33,2.43-.99c.63-.62.99-1.46.99-2.37s-.34-1.78-.98-2.41ZM105.39,89.52c0,.61-.38,1.06-1.03,1.16l1,2.02h-.84l-.92-1.91h-.94v1.91h-.74v-4.41h1.62c1.23,0,1.84.39,1.84,1.23ZM102.66,88.78v1.53h.78c.81,0,1.2-.18,1.2-.74s-.39-.79-1.21-.79h-.76Z"></path>
      </g>
      <g>
        <path class="purina-cls-2" d="M123.22,94.6c-.73-.47-.93-1.24-.93-1.88h0c0-.51.12-1.01.38-1.47h0l.19-.34,2.83-.62c2.06-.38,4.54-.99,5.47-2.33h0c1.13-1.46,1.69-8.35,1.64-16.09h0V25.63c.06-7.61-.52-13.51-1.76-14.86h0c-1-1.36-2.27-2.04-5.26-2.33h0l-3.19-.31-.23-.29c-.4-.51-.61-1.09-.61-1.66h0c-.01-.7.33-1.41.97-1.8h0l.17-.1.2-.02c9.54-.96,19.8-1.09,26.48-1.09h0c8.8,0,17.14,1.34,23.38,5.26h0c6.16,3.8,10.68,10.99,10.67,20.71h0c.02,11.63-5.71,18.47-12.23,22.2h0c-6.52,3.76-13.77,4.57-17.22,4.57h0c-1.29.01-2.31,0-2.69,0h-.44l-.26-.34c-.35-.47-.56-1.03-.56-1.58h0c0-.56.23-1.16.73-1.54h0l.16-.14.21-.03c14.56-3,19.82-10.74,19.91-23.14h0c-.09-13.16-6.97-21.02-19.87-21.1h0c-2.96-.06-6.22.53-6.75,1.15h0s0,0-.05.1h0c-.04.12-.1.33-.14.62h0c-.09.59-.12,1.51-.12,2.77h0v59.2c-.05,7.74.5,14.63,1.62,16.07h0c.94,1.36,3.41,1.97,5.46,2.21h0l4.51.74.21.37c.24.45.38.94.38,1.46h0c0,.64-.21,1.4-.93,1.87h0l-.22.15h-.28c-7.56-.28-11.39-.41-16.5-.42h0c-5.11,0-8.93.14-14.82.41h-.28s-.23-.13-.23-.13h0Z"></path>
        <path class="purina-cls-2" d="M203.51,89.76c-5.66-5.05-8.17-13.31-8.17-25.3h0v-25.52c.06-6.24-.44-11.98-1.28-12.92h0c-.7-1.04-2.68-1.54-4.33-1.85h0l-2.65-.51-.2-.31c-.25-.42-.43-.88-.43-1.37h0c0-.55.26-1.13.72-1.49h0l.26-.22.33.02c4.88.21,8.17.33,12.4.33h0c4.44,0,8.05-.11,12.71-.33h.27s.23.13.23.13c.56.34.81.98.81,1.53h0c0,.5-.16.97-.43,1.4h0l-.2.33-2.96.5c-1.66.3-3.64.81-4.33,1.83h0c-.87,1.09-1.34,6.68-1.3,12.94h0v23.89c.11,16.7,5.23,27.89,20.7,27.94h0c15.47-.04,20.8-11.57,20.91-28.05h0v-14.41c0-2.55-.06-7.36-.33-11.93h0c-.25-4.54-.81-8.98-1.52-10.21h0c-.42-.79-2.08-1.6-4.57-2h0l-3.41-.48-.21-.22c-.41-.46-.49-.95-.49-1.41h0c.04-.58.06-1.21.84-1.69h0l.21-.1h.22c4.13.23,7.95.34,11.88.34h0c3.81,0,6.59-.11,10.1-.33h0l.32-.02.26.2c.5.4.69.98.69,1.55h0c0,.45-.13.91-.39,1.33h0l-.2.32-3.14.61c-1.86.36-3.68,1.39-3.75,1.9h0c-1.35,3.06-1.51,15.19-1.49,20.49h0v1.65h0v14.19c0,9.11-1.12,18.6-6.94,25.44h0c-4.7,5.38-12.69,8.15-20.75,8.15h0c-8.18,0-15.08-1.44-20.38-6.33h0Z"></path>
        <path class="purina-cls-2" d="M309.7,89.33c-2.7-4.05-12.68-19.38-16-24.52h0c-1.6-2.33-2.24-3.24-6.22-3.31h0c-2.77-.02-4.23.1-4.63.32h0c-.24.12-.29.19-.31,1.54h0v12.66c-.05,6.23.43,11.84,1.28,12.91h0c.7,1.03,2.68,1.54,4.35,1.85h0l2.45.51.2.34c.22.39.31.81.32,1.24h0c0,.55-.18,1.22-.8,1.64h0l-.24.15h-.27c-4.86-.23-7.96-.33-12.09-.33h0c-4.13,0-7.21.11-12.61.32h-.26s-.23-.13-.23-.13c-.64-.42-.82-1.1-.82-1.65h0c0-.43.1-.88.33-1.27h0l.21-.34,2.95-.5c1.67-.3,3.65-.81,4.33-1.83h0c.87-1.08,1.35-6.69,1.3-12.92h0v-37.32c.03-6.14-.5-10.72-1.13-11.67h0c-.75-1.23-1.6-1.96-3.9-2.2h0l-2.71-.25-.23-.23c-.35-.38-.53-.87-.53-1.37h0c0-.56.21-1.12.64-1.56h0l.23-.23.31-.03c8.03-.77,15.11-.87,23.41-.87h0c5.87,0,12.4.64,17.12,3.28h0c5.21,2.96,9.05,8.54,9.04,16.46h0c-.03,10.09-7.57,16.16-13.04,18.43h0s-.01.1-.01.15h0c0,.35.18.91.49,1.49h0c8.25,14.03,19.41,30.69,26.62,37.3h0c1.78,1.67,3.99,2.38,7.31,2.49h0l.36.02.25.26c.36.42.45.86.46,1.28h0c-.02.42-.08.9-.58,1.31h0l-.16.12-.18.04c-1.03.22-2.66.56-4.43.56h-.32c-9.52,0-15.01-3.14-22.26-14.13h0ZM283.05,56.85c.24.07.63.14,1.15.21h0c1.04.13,2.62.21,4.83.21h0c4.2,0,8.04-.46,10.65-2.64h0c2.72-2.29,5.05-5.62,5.08-13.19h0c-.06-8.87-4.94-16.89-15.72-16.92h0c-2.28,0-4.42.2-5.43.52h0c-.33.09-.48.19-.48.2h0l-.06.06-.08.05s-.14.11-.24.94h0c-.11.8-.16,2.1-.21,4.03h0v24.22c0,1.64.19,2.1.27,2.23h0s.12.05.25.09h0Z"></path>
        <path class="purina-cls-2" d="M355.3,94.67c-5.39-.21-8.48-.32-12.61-.32h0c-4.13,0-7.22.11-12.61.32h-.26s-.23-.13-.23-.13c-.64-.42-.82-1.1-.82-1.65h0c0-.43.1-.88.33-1.27h0l.2-.34,2.96-.5c1.66-.3,3.64-.81,4.33-1.83h0c.87-1.08,1.34-6.68,1.29-12.93h0v-37.1c.05-6.24-.44-11.98-1.28-12.92h0c-.71-1.04-2.69-1.54-4.34-1.85h0l-2.85-.5-.21-.32c-.26-.41-.43-.87-.43-1.36h0c-.02-.56.25-1.14.71-1.5h0l.25-.22h.34c5.07.23,8.37.34,12.61.34h0c4.44,0,8.05-.11,12.7-.33h.27s.23.13.23.13c.56.35.82.99.8,1.53h0c0,.5-.16.97-.42,1.4h0l-.21.33-2.95.5c-1.66.3-3.64.81-4.34,1.83h0c-.86,1.08-1.34,6.68-1.29,12.93h0v37.1c-.05,6.24.43,11.84,1.28,12.91h0c.7,1.03,2.68,1.54,4.32,1.84h0l3,.5.21.36c.21.39.32.8.32,1.25h0c0,.55-.19,1.22-.81,1.63h0l-.23.15h-.28Z"></path>
        <path class="purina-cls-2" d="M429.25,95.71c-1.24-1.85-3.9-5.84-10.1-13.23h0l-27.88-33.07c-6.94-8.28-9.35-11.26-11.06-12.99h0c-.01.1-.03.22-.06.36h0c-.12.95-.12,2.65-.12,5.21h0v24.66c0,2.55.06,7.38.32,11.93h0c.25,4.54.82,8.96,1.53,10.2h0c.42.79,2.08,1.6,4.56,1.99h0l3.4.48.21.21c.42.46.49.96.5,1.41h0c-.04.58-.08,1.2-.81,1.68h0l-.21.12h-.24c-4.13-.22-7.95-.33-11.87-.33h0c-3.82,0-6.59.11-10.11.32h0l-.33.02-.26-.2c-.5-.4-.7-.97-.7-1.55h0c0-.44.12-.92.4-1.34h0l.2-.3,3.13-.61c1.87-.35,3.68-1.4,3.75-1.9h0c1.35-3.07,1.52-15.17,1.48-20.47h0v-1.66h0v-25.08h0c.02-9.75-.17-12.95-2.49-15.07h0c-1.36-1.15-3.3-1.79-5.73-2.32h0l-2.54-.51-.2-.31c-.25-.4-.39-.85-.39-1.29h0c0-.62.28-1.28.88-1.64h0l.23-.14.27.02c3.5.22,6.8.33,10.21.33h0c2.36,0,4.07-.11,5.47-.32h0l.67-.1.25.63c1.95,4.88,9.1,13.87,17.37,23.32h0l10.26,11.9c4.38,5.09,13.65,16.05,17.38,20.14h0c0-.08,0-.14.02-.22h0c.05-.93.05-2.23.05-3.76h0v-23.89c0-2.55-.05-7.38-.32-11.94h0c-.25-4.54-.82-8.97-1.53-10.2h0c-.42-.79-2.08-1.6-4.57-1.99h0l-3.4-.48-.2-.22c-.41-.46-.49-.96-.51-1.41h0c.04-.58.08-1.21.85-1.69h0l.21-.1h.22c4.13.23,7.96.34,11.88.34h0c3.82,0,6.59-.11,10.11-.33h0l.32-.02.26.2c.49.39.7.97.7,1.54h0c0,.44-.14.91-.4,1.34h0l-.19.31-3.15.61c-1.86.36-3.68,1.4-3.74,1.9h0c-1.35,3.06-1.51,15.13-1.49,20.44h0c0,.68,0,1.25,0,1.7h0v26.62c0,3.23.02,16.77.4,19.05h0l.02.15-.03.16c-.13.91-1,1.68-2.07,1.78h0l-.53.07-.29-.44h0Z"></path>
      </g>
    </g>
    <path class="purina-cls-2" d="M504.5,91.46l-.2-.2-3.38-.59c-2-.44-3-.96-4.11-2.57-1.11-1.62-2.17-4.44-3.72-9.19l-13.58-41.46c-3.41-10.58-4.65-15.11-5.28-17.02-.16-1.01-1.3-1.67-2.16-1.57-.65.07-.69.34-.82.43-.53.69-1.25,2.39-4.49,3.79l-.6.25.09.65c.04.31.07.62.07.99,0,1.24-.33,3.13-1.69,6.9l-10.37,28.91c-4.97,13.53-7.14,19.29-9.21,24.17-1.95,4.56-2.54,4.68-4.88,5.28l-4.31,1.08-.18.31c-.22.38-.33.79-.33,1.23,0,.56.21,1.19.73,1.61l.26.22.35-.02c3.09-.21,5.96-.32,9.67-.32,4.25.11,7.46.11,10.2.32l.41.03.28-.31c.4-.43.55-.98.55-1.48,0-.45-.11-.88-.33-1.27l-.21-.36-4.23-.72c-2.36-.53-2.33-.76-2.4-1.44,0-1.28.28-2.48,1.1-5.09l5.5-17.02c.31-1.13.52-1.49.62-1.52.08-.09.37-.2,1.63-.18h17.55c1.16-.02,1.69.06,1.78.15.11.04.37.39.72,1.54l4.98,16.25c.83,2.6,1.32,4.56,1.3,5.53-.02.6-.14.76-.51,1.05-.39.27-1.16.53-2.22.73l-3.31.72-.19.23c-.31.39-.45.85-.45,1.29,0,.62.27,1.23.77,1.65l.25.21h.33c3.34-.12,7.16-.33,11.28-.33,5.38,0,8.78.11,11.97.32l.4.02.28-.3c.41-.45.59-1,.6-1.58,0-.44-.12-.94-.5-1.35ZM475.87,60.21h-14.59c-.83.01-1.43-.02-1.72-.06.07-.28.25-.85.56-1.6l5.39-15.85c1.27-3.77,2.53-6.87,3.33-8.83.67,1.87,1.38,4.33,1.98,6.29l5.8,18.23c.29.85.48,1.47.54,1.78-.26.04-.51.06-1.29.05Z"></path>
  </g>
  <path class="purina-cls-2" d="M482.11,23.49c0-2.44,1.9-4.41,4.47-4.41s4.47,1.98,4.47,4.41-1.9,4.41-4.47,4.41-4.47-1.98-4.47-4.41ZM486.57,27.41c2.12,0,3.74-1.72,3.74-3.93s-1.62-3.9-3.74-3.9-3.74,1.71-3.74,3.9,1.62,3.93,3.74,3.93ZM485.14,22.28c0-.79,0-.92-.45-.97l-.19-.02c-.06-.06-.06-.18.03-.23.69-.04,1.18-.05,1.92-.05s1.75.17,1.75,1.29c0,.65-.55,1.06-.93,1.21-.01.06,0,.13.05.19.57.96.95,1.55,1.39,1.95.18.17.34.18.45.18.04.04.04.12,0,.16-.06.01-.22.04-.38.04-.67,0-.98-.23-1.48-.93-.18-.25-.46-.79-.7-1.14-.06-.1-.22-.14-.4-.14-.29,0-.32.03-.32.16v.72c0,.83.05.97.44,1.01l.25.02c.07.05.07.2-.01.24-.33-.01-.61-.03-1.01-.03s-.7.01-1.02.03c-.08-.04-.09-.19-.03-.24l.19-.02c.45-.06.45-.2.45-1.01v-2.41ZM485.88,23.2c0,.26.05.27.5.27.72,0,1.02-.45,1.02-1.09,0-.51-.37-1.03-1.06-1.03-.46,0-.46.06-.46.3v1.56Z"></path>
</svg>