<svg version="1.1" id="Layer_1" xmlns="http://www.w3.org/2000/svg" xmlns:xlink="http://www.w3.org/1999/xlink" x="0px" y="0px" viewBox="0 0 320 320" style="enable-background:new 0 0 320 320;" xml:space="preserve">
<style type="text/css">
	.st0{fill:#AD1501;}
</style>
<g>
	<path class="st0" d="M302.5,56.8H17.5C7.8,56.8,0,64.6,0,74.3v171.4c0,9.6,7.8,17.5,17.5,17.5h285.1c9.6,0,17.5-7.8,17.5-17.5V74.3
		C320,64.6,312.2,56.8,302.5,56.8z M307,74.3v71.3H161.6c2.4-1.1,4.7-2.3,6.9-3.7c14-9.1,14.7-24.8,8.3-34.9
		c-6.6-10.4-21.4-16.8-38.3-6.3c-11.6,7.2-20.6,15.9-27.2,23.6V69.8h191.3C305,69.8,307,71.8,307,74.3z M98.3,139.9
		c0.1,0.2,0.2,0.3,0.4,0.5c-12.7,0.1-33.5-1.2-46.2-9.5c-7.4-4.8-7.6-12-4.4-17c1.9-3,5.4-5.6,10.2-5.6c3,0,6.4,1,10.3,3.4l0,0
		C82.6,120.5,92.5,131.9,98.3,139.9z M115.2,140.4c0.1-0.2,0.2-0.3,0.4-0.5c5.8-8,15.7-19.4,29.8-28.1c10.1-6.3,17.3-2.7,20.5,2.2
		c3.2,5,3,12.1-4.4,17C148.7,139.2,127.9,140.5,115.2,140.4z M17.5,69.8h85.1v54.4c-6.6-7.7-15.6-16.4-27.2-23.6
		c-16.9-10.5-31.7-4.1-38.3,6.3c-6.4,10.1-5.7,25.8,8.3,34.9c2.1,1.4,4.5,2.6,6.9,3.7H13V74.3C13,71.8,15,69.8,17.5,69.8z M13,245.7
		v-91.5h77.4c-9,14.9-20,35.6-30,61.5l12.1,4.7c10-25.8,21.2-46.5,30-61v90.7H17.5C15,250.2,13,248.2,13,245.7z M302.5,250.2H111.3
		v-90.7c8.8,14.5,20,35.1,30,61l12.1-4.7c-10.1-25.9-21.1-46.6-30-61.5H307v91.5C307,248.2,305,250.2,302.5,250.2z"></path>
	<path class="st0" d="M267.9,184.8c1.9,0,3.4,0.7,4.5,2c1.1,1.4,1.7,3.4,1.7,6.1h9.8c0-4.4-1.1-8-3.4-10.8c-2.3-2.8-5.4-4.5-9.4-5
		v-7.4h-5.4v7.3c-4.1,0.4-7.3,1.8-9.8,4.3c-2.5,2.4-3.7,5.6-3.7,9.4c0,2.2,0.4,4.1,1.1,5.8c0.7,1.6,1.7,3,3,4.2
		c1.3,1.2,2.8,2.2,4.6,3.2c1.8,0.9,3.9,1.8,6.4,2.8c2.5,0.9,4.2,1.9,5.3,3c1,1.1,1.5,2.6,1.5,4.4c0,1.8-0.6,3.2-1.7,4.3
		c-1.2,1.1-2.7,1.6-4.7,1.6c-2.4,0-4.2-0.7-5.5-2.2c-1.3-1.4-1.9-3.5-1.9-6.2h-9.8c0,4.7,1.3,8.4,3.8,11.2c2.6,2.8,6.2,4.5,10.8,5
		v6.7h5.4v-6.8c4.2-0.4,7.5-1.8,9.9-4.3c2.4-2.4,3.6-5.5,3.6-9.4c0-2.1-0.3-3.9-1-5.4c-0.6-1.6-1.6-2.9-2.8-4.1
		c-1.2-1.2-2.7-2.3-4.4-3.3c-1.7-1-4-2-6.7-3.1c-2.7-1.1-4.6-2.2-5.6-3.2c-1-1-1.5-2.4-1.5-4.2c0-1.9,0.5-3.3,1.5-4.4
		C264.6,185.3,266,184.8,267.9,184.8z"></path>
</g>
</svg>