<svg aria-hidden="true" focusable="false" version="1.1" id="Layer_1" xmlns="http://www.w3.org/2000/svg" xmlns:xlink="http://www.w3.org/1999/xlink" x="0px" y="0px" viewBox="0 0 320 320" style="enable-background:new 0 0 320 320;" xml:space="preserve">
<style type="text/css">
	.st0{fill:#AD1501;}
</style>
<g>
	<path class="st0" d="M226.2,123.6c4.8,0,8.8-3.9,8.8-8.8s-3.9-8.8-8.8-8.8c-4.8,0-8.8,3.9-8.8,8.8S221.4,123.6,226.2,123.6z"></path>
	<path class="st0" d="M24.5,200.6l7.1-5c-19-27-19.8-62.6-3.1-90.6c2.2-1.5,4.5-2.9,6.8-4.4c-11.1,28.3-7.6,61,10.3,86.5l7.1-5
		c-18.9-26.9-19.8-62.4-3.3-90.3c2.4-1.4,4.8-2.9,7.2-4.3c-11.4,28.4-8,61.4,10.1,87.2l7.1-5c-18.8-26.7-19.8-62-3.5-89.9
		c3.4-1.9,6.8-3.7,10.3-5.4c-13.2,27.1-12.6,59.5,2.6,86.1l7.5-4.3C74.9,128.5,76.4,94,94.4,67.8c2.5-1.1,4.9-2.2,7.3-3.2
		c-12.5,25.4-12.8,55.3-0.1,81.1l7.8-3.8c-13-26.5-10.9-57.8,5.2-82.4c0.9-0.3,1.8-0.7,2.7-1c2.4-0.8,4.7-1.5,7-2.2
		c-12.6,23.4-14.6,51.3-4.9,76.5l8.1-3.1c-9.8-25.6-6.4-54.3,9.1-76.9c3.6-0.9,7.1-1.6,10.6-2.2c-11.4,19.5-15.5,42.8-10.9,65.1
		l8.5-1.7c-4.6-22.4,0.3-46,13.5-64.7l-0.2-0.1c0.2,0,0.3,0,0.5,0l26.7,53l-1.2,78.6c-9.4-4.1-18.4-6.5-25.9-5.9
		c-28.5,2.5-39.4,33.5-44.6,48.3c-0.6,1.7-1.1,3.2-1.6,4.5l-0.9,2.3c-13.7,35.9-26.4,66.4-37.7,90.1h14.4c12.5-26.9,25-58,35.4-85.5
		l0.9-2.3c0.5-1.4,1.1-3,1.7-4.8c6.5-18.3,14.9-38.1,33.5-39.7c19.3-1.7,60.2,28.7,76.3,42.3c3,11,9.1,18.4,18,22
		c21.9,8.8,52-10.5,56.1-13.3c7.8-6.8,18.3-22.4,1.3-50.7c-1.3-2.2-3.9-6.7-7.3-12.9c-12.1-21.4-34.5-61.2-54.9-91.9
		c-4.1-6.3-8.4-11.7-12.8-16.6c4.5-13.6,7.2-27.1,7.3-27.7c0.6-2.9-0.9-5.8-3.5-7.1c-2.6-1.3-5.8-0.7-7.7,1.5
		c3.6-12.4,5.8-23.1,6.2-25.5c0.6-2.9-0.9-5.8-3.5-7.1c-2.6-1.3-5.8-0.7-7.7,1.5c-12.3,13.9-29.7,26.5-42.5,34.9
		c-20.1-3.4-43.4-0.4-71.2,9.1C72.7,60,29.1,87.9,0,108.5v16.1c4.2-3.1,8.8-6.3,13.9-9.8C3.1,142.9,6.7,175.2,24.5,200.6z
		 M229.6,208.7c-10-7.6-23.4-16.9-36.9-23.9l1-66l38,75.3c-1.8,2.8-2.9,6.1-2.9,9.7C228.8,205.5,229.1,207.1,229.6,208.7z
		 M237.5,203.7c0-5,4.1-9.1,9.1-9.1s9.1,4.1,9.1,9.1c0,5-4.1,9.1-9.1,9.1S237.5,208.8,237.5,203.7z M236.1,88
		c0.6,0.8,1.1,1.5,1.7,2.4c20.1,30.4,42.4,69.9,54.4,91.2c3.6,6.3,6.2,11,7.5,13.2c0.7,1.2,1.4,2.4,2,3.5c-0.2,0-0.5-0.1-0.7-0.1
		c-5.1,0-9.2,6.3-9.2,14.2s4.1,14.2,9.2,14.2c1.1,0,2.2-0.4,3.2-0.9c-1,1.4-2.1,2.4-2.9,3.1c-7.9,5.1-30,16.5-43.1,11.3
		c-5.3-2.1-8.8-7-10.6-15l-0.5-2.1l-1.6-1.4c0,0,0,0,0,0c0.4,0,0.7,0.1,1.1,0.1c9.8,0,17.8-8,17.8-17.8c0-9.8-8-17.8-17.8-17.8
		c-3,0-5.8,0.8-8.2,2.1l-42.7-84.6L236.1,88z M220.2,26.7c-4.4,15.5-10.3,31.6-16.3,37.1l8.9,9.5c1.8-1.7,3.5-3.9,5.2-6.4
		c4.4,3.9,8.7,8.4,12.9,13.7l-39.1,15L173.3,59C174.6,58.3,198.6,45.1,220.2,26.7z"></path>
</g>
</svg>