<svg id="Layer_1" xmlns="http://www.w3.org/2000/svg" version="1.1" viewBox="0 0 320 320">
  <defs>
    <style>
      .st0 {
        fill: #fff;
      }

      .st1 {
        fill: #ad1501;
      }
    </style>
  </defs>
  <path class="st0" d="M190,48.8l-4.8-13.2c-.4-1-1.1-1.8-1.9-2.4,1.1,1.2,2,2.7,2.6,4.3l4.1,11.4h0Z"></path>
  <path class="st1" d="M74.2,78l99-35.7,4.8,13.4,12.8-4.6-.8-2.3-4.1-11.4c-.6-1.6-1.5-3.1-2.6-4.3-3.5-3.9-9.1-5.5-14.3-3.6L34.4,77.9c-1.8.6-3.4,1.6-4.7,2.9,2.2-1.7,5-2.8,8.1-2.8,0,0,36.4,0,36.4,0Z"></path>
  <path class="st1" d="M178,55.7l-61.8,22.3h40.1l71.8-25.9,9.3,25.9h14.4l-11.1-30.9c-2.5-6.8-10.1-10.4-16.9-7.9l-33,11.9-12.8,4.6h0Z"></path>
  <path class="st1" d="M269.4,211.8v54.7H38.2V91.6h231.2v46.3h13.5v-46.7c0-7.3-5.9-13.2-13.2-13.2H37.8c-3.1,0-5.9,1-8.1,2.8-3.1,2.4-5.1,6.2-5.1,10.4v175.6c0,7.3,5.9,13.2,13.2,13.2h231.9c7.3,0,13.2-5.9,13.2-13.2v-55h-13.5Z"></path>
  <path class="st1" d="M282.9,137.9h-66.2c-7.3,0-13.2,5.9-13.2,13.2v47.5c0,7.3,5.9,13.2,13.2,13.2h66.2c7-.4,12.5-6.1,12.5-13.2v-47.5c0-7.1-5.5-12.8-12.5-13.2ZM281.8,198.3h-64.9v-46.8h64.9v46.8Z"></path>
  <circle class="st1" cx="249.4" cy="174.8" r="14.2" transform="translate(36.9 393) rotate(-80.8)"></circle>
  <path class="st1" d="M151.3,183.5c-2.3-2.4-5.3-4.6-8.7-6.5s-7.8-3.9-13.2-6.1c-5.4-2.1-9-4.2-11-6.3s-3-4.6-3-8.2,1-6.5,3-8.6,4.8-3.1,8.5-3.1,6.7,1.3,8.9,4,3.3,6.7,3.3,12.1h19.4c0-8.7-2.2-15.8-6.7-21.3s-10.7-8.8-18.6-9.9v-14.6h-10.8v14.4c-8,.8-14.5,3.7-19.3,8.5-4.9,4.8-7.3,11-7.3,18.6s.7,8.2,2.1,11.4,3.4,5.9,5.9,8.3c2.5,2.4,5.6,4.5,9.1,6.3s7.7,3.7,12.6,5.5c4.9,1.8,8.3,3.8,10.4,6,2.1,2.2,3.1,5.1,3.1,8.8v-.2c0,3.5-1,6.3-3.3,8.4-2.2,2.1-5.4,3.1-9.3,3.1s-8.4-1.4-10.9-4.3c-2.5-2.9-3.8-7-3.8-12.3h-19.4c0,9.2,2.6,16.6,7.6,22.1,5,5.6,12.1,8.8,21.3,9.8v13.3h10.7v-13.4c8.3-.9,14.9-3.7,19.6-8.4,4.7-4.7,7.1-10.9,7.1-18.5s-.6-7.6-1.9-10.7c-1.2-3.1-3.1-5.8-5.4-8.2h0Z"></path>
</svg>
