<svg xmlns="http://www.w3.org/2000/svg" version="1.1" viewBox="0 0 320 320">
  <defs>
    <style>
      .cls-1 {
        fill: #ad1501;
      }
    </style>
  </defs>
  <g>
    <g id="Layer_1">
      <g>
        <path class="cls-1" d="M319.2,146.3c-2.8-8.6-31.8-13-41.6-15.3l-75.7-20.4c-7.5-2.1-13.6-7.6-16.4-15-11.7-30.5-36.5-57.1-70.7-57.1s-70.2,27-78.5,63.1c-7.4,1.9-25.6,6.9-34.8,14-2.4,1.8-1.8,5.6.9,6.6,5.5,2.1,13.9,5.3,18.4,7.2,4.5,1.8,10.8,4.6,14.8,6.4.5,2.5,1.1,16,1.1,20.4,0,42.5,22.2,80.1,56.3,103.1-8.5-10.3-13.8-23.4-14.7-39.2,0-.5-12.6-6.3-10.3-16.3,1.4-5.9,20.4-10.4,26.8-12.6l49.2-17.9c4.9-1.8,8.6-5.8,10.1-10.9,6.1-21,21.1-40.1,43.9-42.1,25.5-2.2,48.3,14,55.9,37.6,5.1.8,17.4,3.2,24,7.3,1.7,1.1,1.5,3.6-.3,4.5-3.5,1.7-8.9,4.3-11.9,5.8-2.9,1.5-6.9,3.7-9.5,5.1-.2,1.7.2,10.7.4,13.6,3.3,39-21.9,74.1-59.2,87.2,63.2-8.1,110-46.4,108.4-109.6,0-.8,18-11.1,13.3-25.6ZM73.2,100.4c-5.2,0-9.5-4.3-9.5-9.6s4.2-9.6,9.5-9.6,9.5,4.3,9.5,9.6-4.2,9.6-9.5,9.6Z"></path>
        <path class="cls-1" d="M145.2,270.9c7.8-.7,15.2-2.7,22.1-6.2,25-12.6,36-40.2,39.6-51.5.6-1.8-.4-3.8-2.2-4.4-1.8-.6-3.8.4-4.4,2.3-3.3,10.4-13.5,35.9-36.1,47.4-14.5,7.4-31.9,7.6-51.5.7-1.8-.6-3.8.3-4.4,2.2-.6,1.8.3,3.8,2.2,4.5,12.4,4.3,24,6.1,34.7,5.1Z"></path>
        <path class="cls-1" d="M235.1,152.3c-.3-3.5-3.4-6.2-6.9-5.9-3.5.3-6.1,3.4-5.8,6.9.3,3.5,3.4,6.2,6.9,5.9,3.5-.3,6.1-3.4,5.8-6.9Z"></path>
      </g>
    </g>
  </g>
</svg>