<svg id="Layer_1" xmlns="http://www.w3.org/2000/svg" version="1.1" viewBox="0 0 320 320">
  <defs>
    <style>
      .st0 {
        fill: #ad1501;
      }
    </style>
  </defs>
  <path class="st0" d="M317.98,158.53l-49.4-86.05c-2.53-4.42-7.09-7.25-12.17-7.56-5.12-.31-9.97,1.94-13.02,6.04l-30.92,41.38-36.38-.9c-1.45-.04-2.83.4-3.99,1.24l-13.08,9.54c-6.28-4.56-11.28-7.9-13.47-8.72-5.46-2.05-18.61-2.21-29.03-1.98,2.11-3.48,2.75-7.57,1.79-11.53s-3.41-7.31-6.89-9.44l-38.37-23.41c-7.2-4.38-16.61-2.11-20.99,5.08L2.24,153.93c-2.12,3.48-2.76,7.58-1.8,11.55s3.41,7.32,6.89,9.44l38.37,23.41h0c2.48,1.51,5.22,2.23,7.93,2.23,5.15,0,10.19-2.6,13.06-7.31l1-1.64,86.1,62.28c1.13.82,2.47,1.23,3.8,1.23,1.21,0,2.41-.33,3.47-1l96.28-60.99,51.09-12.38c4.66-1.13,8.42-4.3,10.31-8.71,1.9-4.41,1.62-9.32-.77-13.49ZM13.04,162.42c-.08-.35-.16-1.03.27-1.74l49.83-81.69c.65-1.08,2.06-1.43,3.16-.77l24.93,15.21-52.22,85.61-24.92-15.2c-.71-.43-.95-1.08-1.04-1.42ZM52.46,187.24l-6.07-3.7,52.22-85.61,6.07,3.7c.71.43.95,1.08,1.04,1.42.08.34.16,1.03-.27,1.74l-49.83,81.7c-.66,1.08-2.08,1.43-3.16.76ZM108.45,124.77c13.59-.6,29-.46,32.5.85,4.47,1.92,31.89,23.05,57.24,43.47-.98,1.35-2.46,2.74-4.66,3.47-4.75,1.57-16.28,1.32-40.29-18.17-2.33-1.89-5.66-1.94-8.04-.11l-51.84,39.86-18.89-13.66,33.98-55.72ZM306.84,166.89c-.16.36-.56,1.01-1.46,1.22l-52.13,12.63c-.68.17-1.34.45-1.94.82l-93.47,59.22-8.16-5.9,20.37-15.68c1.89-1.46,2.25-4.17.79-6.06-1.47-1.9-4.18-2.24-6.06-.79l-22.41,17.25-7.61-5.51,20.05-15.42c1.89-1.46,2.25-4.17.79-6.06-1.47-1.9-4.18-2.24-6.06-.79l-22.09,17-7.74-5.6,20.2-15.54c1.89-1.46,2.25-4.17.79-6.06-1.46-1.9-4.19-2.24-6.06-.79l-22.23,17.11-8.08-5.84,44.77-34.43c20.28,15.59,36.71,21.34,48.83,17.12,9.39-3.26,13.58-11.69,14.58-16.16.53-2.41-.34-4.91-2.25-6.46-7.58-6.13-25.2-20.3-40.32-31.82l8.06-5.88,37.53.93c2.3.06,4.1-.92,5.35-2.6l32.92-44.07c.6-.81,1.44-.88,1.84-.86.43.03,1.22.2,1.71,1.07l49.4,86.05c.46.8.26,1.54.11,1.9Z"></path>
  <path class="st0" d="M251.49,157.01l-6.38-1.17,2.47-6.01c.49-1.2.41-2.57-.21-3.72s-1.73-1.95-3.01-2.18l-6.38-1.17,2.47-6.01c.49-1.21.41-2.57-.2-3.72-.62-1.14-1.73-1.95-3.01-2.18l-11.65-2.15c-2.32-.43-4.61,1.12-5.03,3.47-.44,2.35,1.11,4.61,3.46,5.04l6.41,1.18-2.48,6.03c-.49,1.2-.41,2.57.21,3.72.62,1.14,1.73,1.94,3.01,2.18l6.38,1.17-2.47,6.02c-.49,1.21-.41,2.58.21,3.72s1.73,1.95,3.01,2.18l6.38,1.17-2.47,5.98c-.91,2.21.14,4.74,2.35,5.65.54.22,1.1.33,1.65.33,1.7,0,3.31-1,3.99-2.67l4.51-10.93c.5-1.21.42-2.57-.2-3.72-.62-1.14-1.73-1.95-3.01-2.18Z"></path>
</svg>
