<svg aria-hidden="true" focusable="false" version="1.1" id="Layer_1" xmlns="http://www.w3.org/2000/svg" xmlns:xlink="http://www.w3.org/1999/xlink" x="0px" y="0px" viewBox="0 0 320 320" style="enable-background:new 0 0 320 320;" xml:space="preserve">
<style type="text/css">
	.st0{fill:#AD1501;}
</style>
<path class="st0" d="M258.01,0H61.99C27.76,0,0,27.76,0,61.99V320h320V61.99C320,27.76,292.24,0,258.01,0z M46.33,206.23h109.33
	v30.36H46.33V206.23z M46.33,245.27h109.33v28.79H46.33V245.27z M164.34,245.27h109.33v28.79H164.34V245.27z M273.67,236.59H164.34
	v-30.36h109.33V236.59z M273.67,197.56H164.34V167.2h109.33V197.56z M273.67,158.52H164.34v-28.79h80.6
	c15.84,0,28.73,12.89,28.73,28.74V158.52z M155.66,158.52H46.33v-0.05c0-15.85,12.89-28.74,28.74-28.74h80.6V158.52z M46.33,167.2
	h109.33v30.36H46.33V167.2z M33.32,256.2h-20.3v-76.13h20.3V256.2z M306.99,306.99H13.01v-42.11h20.3v22.19h253.36v-128.6
	c0-23.02-18.73-41.75-41.74-41.75H75.06c-23.02,0-41.75,18.73-41.75,41.75v12.93h-20.3V61.99c0-27.01,21.97-48.98,48.98-48.98
	h196.01c27.01,0,48.98,21.97,48.98,48.98V306.99z"></path>
</svg>