<svg aria-hidden="true" focusable="false" version="1.1" id="Layer_1" xmlns="http://www.w3.org/2000/svg" xmlns:xlink="http://www.w3.org/1999/xlink" x="0px" y="0px" viewBox="0 0 320 320" style="enable-background:new 0 0 320 320;" xml:space="preserve">
<style type="text/css">
	.st0{fill:#AD1501;}
</style>
<g>
	<path class="st0" d="M309.4,232.5c-1.8,0.8-3.7,1.6-5.5,2.4c0.5-15.4-2.4-25.9-8.9-32.6c-10.2-10.5-25.9-8.7-41.1-6.9
		c-5.4,0.6-11,1.3-16.2,1.4c-29.4,0.3-103.3-49.2-106.9-142.6l-0.3-7.5l-11,2l-0.3-12.2c0-1.2-0.6-2.4-1.6-3.2
		c-1-0.8-2.2-1.1-3.4-0.9c-1.1,0.2-25.6,4.3-41,25L9.1,69.1l0.2,5.6c0,0.3,0.9,28.1-6.8,93.5c-4.6,38.8-1,62.7,3.3,76.5l-5.8,0
		L0,287.3h94.6l6-16.1c3.6,0.3,13.7,1.6,34.3,8.2c17.5,5.6,36.3,8.4,56.2,8.4c38.7,0,81.8-10.5,128.8-31.6L309.4,232.5z
		 M200.7,197.6l-4.7,12.5c-7.7-1.9-14.9-2.8-21.7-2.9c-71.1-50-77.6-122-78-141.1l21.9-4.1C123.6,132.3,165.1,177.6,200.7,197.6z
		 M97.8,245.2l-4.9,0c-15-55.4-62.4-62.6-78.7-63.3c0.3-3.9,0.7-7.9,1.2-12.2c1.9-15.9,3.2-29.6,4.2-41.2l47.1-8.5
		c3.7-0.3,17.2-3.1,23.9-26.5c5.8,30.8,22.6,77.6,70.4,114.9c-7.5,1.3-14.5,3.8-20.7,7.7c-14.3,8.8-21.6,22.3-25.1,31.2
		C105.7,245.3,100.3,245.1,97.8,245.2z M21.5,104.1l55.3-10.2C72.2,106,65.8,107,65.9,107l-45.1,8.1
		C21.1,111.1,21.3,107.5,21.5,104.1z M110.6,42l0.2,8.2l-23.4,4.3C95.8,47.3,105.1,43.7,110.6,42z M81.3,69
		c-0.2,4.2-0.6,7.8-1.1,11.1L22.1,90.8c0.2-4.7,0.2-8.3,0.2-11L81.3,69z M13.7,190.4c13.9,0.4,55.9,5.7,70.3,54.7l-64.4-0.4
		C16.4,236,12.4,219.2,13.7,190.4z M142.9,254.7c-7.4-2.3-13.6-4.1-18.9-5.4c3.2-7.8,9.6-18.7,21.1-25.9c13.6-8.4,31.2-9.7,52.5-3.8
		l3.8,1.1l7-18.9c11.3,5.3,21.6,8.1,29.4,8c5.8-0.1,11.8-0.8,17.6-1.4c12.6-1.5,24.6-2.9,30.3,3c4.5,4.7,6.1,14.5,4.8,29.1
		C233.9,262.5,183.2,267.5,142.9,254.7z"></path>
	<path class="st0" d="M110.1,108.3c0,2.9,2.3,5.2,5.2,5.2s5.2-2.3,5.2-5.2s-2.3-5.2-5.2-5.2S110.1,105.4,110.1,108.3z"></path>
	<path class="st0" d="M114.8,85.3c0-2.9-2.3-5.2-5.2-5.2s-5.2,2.3-5.2,5.2s2.3,5.2,5.2,5.2S114.8,88.2,114.8,85.3z"></path>
	<path class="st0" d="M119,131.2c0,2.9,2.3,5.2,5.2,5.2s5.2-2.3,5.2-5.2s-2.3-5.2-5.2-5.2S119,128.3,119,131.2z"></path>
	<ellipse class="st0" cx="135.6" cy="151.6" rx="5.2" ry="5.2"></ellipse>
	<path class="st0" d="M149.1,174.5c2.9,0,5.2-2.3,5.2-5.2s-2.3-5.2-5.2-5.2s-5.2,2.3-5.2,5.2S146.2,174.5,149.1,174.5z"></path>
	<path class="st0" d="M163.8,189.3c2.9,0,5.2-2.3,5.2-5.2s-2.3-5.2-5.2-5.2c-2.9,0-5.2,2.3-5.2,5.2S160.9,189.3,163.8,189.3z"></path>
	<path class="st0" d="M181.1,202.9c2.9,0,5.2-2.3,5.2-5.2s-2.3-5.2-5.2-5.2s-5.2,2.3-5.2,5.2S178.3,202.9,181.1,202.9z"></path>
</g>
</svg>