<svg aria-hidden="true" focusable="false" version="1.1" id="Layer_1" xmlns="http://www.w3.org/2000/svg" xmlns:xlink="http://www.w3.org/1999/xlink" x="0px" y="0px" viewBox="0 0 320 320" style="enable-background:new 0 0 320 320;" xml:space="preserve">
<style type="text/css">
	.st0{fill:#AD1501;}
</style>
<g>
	<path class="st0" d="M197.12,240.77c-21.83,0-39.6,17.77-39.6,39.6c0,21.84,17.76,39.6,39.6,39.6c21.84,0,39.6-17.76,39.6-39.6
		C236.72,258.54,218.96,240.77,197.12,240.77z M197.12,306.97c-14.66,0-26.59-11.93-26.59-26.59c0-14.66,11.93-26.59,26.59-26.59
		c14.66,0,26.59,11.93,26.59,26.59C223.71,295.04,211.79,306.97,197.12,306.97z"></path>
	<path class="st0" d="M197.12,269.35c-6.09,0-11.02,4.93-11.02,11.02s4.94,11.02,11.02,11.02c6.09,0,11.02-4.93,11.02-11.02
		S203.21,269.35,197.12,269.35z"></path>
	<path class="st0" d="M306.99,101.08v95.74h-20.98v-64.76h-43.57V85.29h25.43V33.86h-39.75V0.02H110.45v41.19h25.45v35.4H96.13
		v64.11h20.77v56.08H74.44v62.48H46.98v-30.93H33.97v30.93H0v13.01h33.97v13.87c-6.46,2.59-11.04,8.89-11.04,16.26
		c0,9.67,7.87,17.54,17.54,17.54c9.67,0,17.54-7.87,17.54-17.54c0-7.37-4.58-13.66-11.03-16.26v-13.87h33.96l0,0h68.96l1.33-4.76
		c5.73-20.53,24.6-34.87,45.9-34.87s40.16,14.34,45.89,34.87l1.33,4.76H320v-68.99v-6.51v-95.74H306.99z M40.47,306.97
		c-2.5,0-4.53-2.03-4.53-4.53c0-1.83,1.1-3.38,2.66-4.1h3.74c1.56,0.72,2.66,2.27,2.66,4.1C45,304.93,42.97,306.97,40.47,306.97z
		 M119.12,8.7h100.31v23.85H119.12V8.7z M144.58,42.53h114.61v34.08h-16.75h-97.86V42.53z M104.8,132.05V85.29h31.1h97.86v46.76
		H116.9H104.8z M125.57,140.73h116.86h34.9v56.08H125.57V140.73z M140.24,259.29H87.45v-20.4h65.66
		C147.62,244.72,143.12,251.54,140.24,259.29z M163.14,230.22H87.45v-20.4h219.54v20.4h-75.88c-9.81-6.67-21.56-10.55-33.98-10.55
		S172.96,223.55,163.14,230.22z M254.01,259.29c-2.87-7.75-7.37-14.57-12.87-20.4h65.85v20.4H254.01z"></path>
</g>
</svg>