<svg aria-hidden="true" focusable="false" xmlns="http://www.w3.org/2000/svg" width="30px" height="30px" viewBox="0 0 15 24">
  <path d="M89.676-1005.622c.421.019.818.037,1.224.039,2,.008,3.992.007,5.924,0,.271,0,.541-.029.8-.056l.092-.01a2.145,2.145,0,0,1-.009.346c-.052,0-.147,0-.232,0s-.175-.005-.282-.005h-.005q-3.135,0-6.27,0H89.495c-.032,0-.089,0-.136,0,0-.046,0-.1,0-.135v-.189l.32.014Zm.511-1.271a2.878,2.878,0,0,1-2.768-2.055H99.576a2.88,2.88,0,0,1-2.717,2.054c-2.066.017-4.249.018-6.673,0Zm-2.884-12.9a2.876,2.876,0,0,1,2.1-2.657,3.146,3.146,0,0,1,.774-.1c1.974-.007,4.316-.014,6.723,0a2.869,2.869,0,0,1,2.84,2.762Zm9.045-4.108H94.142v-.281c.093,0,.185,0,.277,0a.628.628,0,0,0,.672-.654.64.64,0,0,0-.671-.693c-.7,0-1.273,0-1.8,0a.674.674,0,0,0-.5.189.646.646,0,0,0-.167.475.614.614,0,0,0,.652.641c.083,0,.166,0,.254,0v.293H90.685v-1.889h5.662Zm-9.034,13.564H99.727v-8.11H87.313Zm13.671-9.456a4.106,4.106,0,0,0-3.093-3.947c-.082-.021-.165-.04-.246-.059v-2.046l.029,0a1.341,1.341,0,0,0,1.221-1.407c-.022-.746-.551-.741-1.288-.743-2.756-.007-5.508-.006-8.18,0-.736,0-1.318.065-1.324.816a1.313,1.313,0,0,0,1.26,1.377v2.048l-.093.021a4.224,4.224,0,0,0-3.261,4.018c-.011,3.986-.011,6.43,0,10a4.043,4.043,0,0,0,1.5,3.166,2.771,2.771,0,0,0,.246.182.916.916,0,0,1,.3.265,1.071,1.071,0,0,1,.017.449c-.008.1-.016.2-.016.3A1.236,1.236,0,0,0,89.38-1004l.772,0h2.991q2.259,0,4.518,0a1.2,1.2,0,0,0,1.275-1.265l0-.1c0-.239.008-.486-.005-.734,0-.052,0-.056.072-.105a4.041,4.041,0,0,0,1.978-3.48c.022-3.583.023-6.06,0-10.105Z" transform="translate(-86 1028)" fill="#a62825" fill-rule="evenodd"></path>
  <g transform="translate(4.416 10.239)">
    <path d="M99.978-995.979a10.6,10.6,0,0,1,1.786-2.184,8.889,8.889,0,0,1,1.853,2.331,1.724,1.724,0,0,1-.238,1.879.146.146,0,0,1-.07.029c-1.041.008-2.084.008-3.1,0a.148.148,0,0,1-.062-.03,1.751,1.751,0,0,1-.17-2.025" transform="translate(-98.658 999.416)" fill="#b4121b" fill-rule="evenodd"></path>
  </g>
</svg>