<svg xmlns="http://www.w3.org/2000/svg" width="30" height="30" viewBox="-3 0 27 16.8">
 <path id="Trailer" d="M18.6,32a1.8,1.8,0,0,1,1.8,1.8v9h2.4a1.2,1.2,0,0,1,0,2.4H10.759a4.2,4.2,0,0,0-8.316,0H1.8A1.8,1.8,0,0,1,0,43.4V33.8A1.8,1.8,0,0,1,1.8,32ZM2.4,35v5.708a6.533,6.533,0,0,1,1.2-.788V35a.6.6,0,1,0-1.2,0Zm4.2,4.2c.2,0,.4.007.6.026V35A.6.6,0,1,0,6,35v4.226C6.2,39.208,6.4,39.2,6.6,39.2Zm3,.72a6.558,6.558,0,0,1,1.2.788V35a.6.6,0,1,0-1.2,0ZM13.2,35v7.2a.6.6,0,0,0,1.2,0V35a.6.6,0,1,0-1.2,0ZM18,35a.6.6,0,1,0-1.2,0v7.2a.6.6,0,0,0,1.2,0ZM3.6,45.8a3,3,0,1,1,3,3A3,3,0,0,1,3.6,45.8Zm3,1.2a1.2,1.2,0,1,0-1.2-1.2A1.2,1.2,0,0,0,6.6,47Z" transform="translate(0 -32)" fill="#a62825"></path>
</svg>