<svg width="180" height="44" viewBox="0 0 180 44" aria-hidden="true" focusable="false" fill="none" xmlns="http://www.w3.org/2000/svg"> <g id="TSC_primary logo_2023" clip-path="url(#clip0_9357_8086)"> <path id="Path 1295" d="M0 1.14282L13.0253 42.9524L39.0723 34.2354L47.8055 1.14282H0Z" fill="white"></path> <path id="Path 1296" d="M0 1.14282L13.0253 42.9524L39.0723 34.2354L47.8055 1.14282H0ZM16.722 8.61842H14.1537V6.71721H13.3333V21.1242L14.2645 21.682V24.4777H8.68467V21.682L9.61578 21.1242V6.71721H8.81966V8.61842H6.27207V2.77535H16.722V8.61842ZM26.8709 12.9582H24.0118V12.0467C23.991 9.57753 21.2946 9.64895 21.6165 11.4855C21.7584 12.295 23.5895 15.1043 25.154 18.1483C29.3493 26.3177 23.316 31.5486 19.9377 27.7904L19.3666 28.5556H17.4524V21.8929H20.4396V23.5934C20.3011 26.0014 25.5867 26.4197 21.2219 18.6448C19.6123 15.7743 18.9512 14.6588 18.3835 13.0296C16.857 8.66944 19.9792 6.75122 22.0388 6.81244C22.853 6.79701 23.6422 7.08918 24.2437 7.6287L24.801 6.85325H26.8709V12.9582ZM38.5151 28.0591C38.5151 31.8581 35.9848 33.7695 34.0014 33.7763C31.0177 33.7831 28.2762 32.1574 28.5462 21.1854C28.8543 8.50278 35.6317 11.2237 35.7875 12.0399L36.3448 11.3597H38.4147V17.4647L35.5036 17.4579V16.3695C35.2752 13.4888 32.0457 13.5262 32.1876 21.546C32.2949 27.6135 32.4368 30.0181 34.2818 30.0215C35.4898 30.0215 35.4898 28.4162 35.5002 28.423V26.032H38.5151V28.0625V28.0591Z" fill="#DA3832"></path> <path id="Path 1297" d="M58.9408 8.6388H55.6248V1.00675H71.2911V8.6388H67.9231V5.2037H66.369V16.3151H68.1308V20.6174H58.6777V16.3151H60.495V5.20029H58.9408V8.6354V8.6388ZM81.1665 20.6208H72.3953V16.3151H73.9494V5.20029H72.3953V1.00675H81.1665C86.3551 1.00675 88.8819 2.55765 88.8819 6.29205C88.8819 8.66261 87.7224 10.2407 85.4586 10.9753C88.1724 11.4923 88.4077 12.6079 88.4077 15.1961V16.3117H89.7784V20.614H82.8003V15.8457C82.8003 13.5568 82.2983 12.7405 80.1142 12.7405C79.955 12.7405 79.7715 12.7677 79.5604 12.7677V16.3083H81.1665V20.6106V20.6208ZM79.5604 9.04353C79.7881 9.0657 80.0169 9.07479 80.2457 9.07074C82.1668 9.07074 83.0633 8.49935 83.0633 7.13552C83.0633 5.77168 82.0872 5.20029 80.0069 5.20029H79.5604V9.04013V9.04353ZM63.4821 30.1099L61.6095 29.3752C60.8619 29.076 60.4396 28.8311 60.4396 28.2019C60.4396 27.5217 61.0142 27.0047 61.9349 27.0047C63.5583 27.0047 64.5552 27.9298 64.7802 29.6745H67.2239V23.3281H64.531V24.226C63.8075 23.3825 62.7587 22.9166 61.3638 22.9166C57.9681 22.9166 55.6248 25.6136 55.6248 29.7256C55.6248 33.0212 57.0474 34.8748 60.1142 35.9087L61.7099 36.4529C62.6099 36.7522 63.0322 37.2148 63.0322 37.9766C63.0322 38.9017 62.3607 39.5037 61.2115 39.5037C59.6919 39.5037 58.6431 38.3881 58.0927 36.1808H55.7217V42.9898H58.342V41.711C59.2419 42.7994 60.6126 43.4252 62.333 43.4252C65.8774 43.4252 68.2485 40.7825 68.2485 36.4529C68.2485 32.994 66.7497 31.3853 63.4821 30.1065V30.1099ZM78.1931 27.4978H79.3908V37.0549C79.3908 38.446 78.74 39.235 77.5701 39.235C76.4001 39.235 75.6732 38.446 75.6732 37.0277V27.4978H76.8709V23.3281H68.8889V27.4706L70.1107 27.6305V36.7012C70.1107 41.2212 72.3814 43.4286 77.0197 43.4286C81.1872 43.4286 83.1845 41.3301 83.1845 37.0277V27.4978H84.4063V23.3281H78.1931V27.4978ZM101.097 29.5113C101.097 33.7048 98.83 35.9394 94.4375 35.9394H92.9664V38.6364H94.4617V42.9388H85.9571V38.6364H87.4282V27.5251H85.9571V23.3315H94.9879C98.9789 23.3315 101.101 25.5388 101.097 29.5147V29.5113ZM95.7355 29.5385C95.7355 28.1509 94.9602 27.5217 93.3645 27.5217H92.9664V31.8512H93.2918C94.8875 31.8512 95.7355 31.0622 95.7355 29.5351V29.5385ZM116.899 29.5249C116.899 33.7184 114.628 35.953 110.235 35.953H108.764V38.65H110.26V42.9524H101.755V38.65H103.226V27.5387H101.755V23.3451H110.786C114.777 23.3451 116.899 25.5524 116.899 29.5283V29.5249ZM111.533 29.5521C111.533 28.1645 110.758 27.5353 109.162 27.5353H108.764V31.8648H109.09C110.685 31.8648 111.533 31.0758 111.533 29.5487V29.5521ZM127.445 38.6364H124.652V27.5217H125.974V23.3281H117.74V27.5217H119.062V38.6364H117.74V42.9388H131.461V35.2047H127.445V38.6364ZM139.145 27.4944H140.318L138.37 31.1982L136.352 27.4944H137.574V23.3281H129.142V27.4944H130.239L134.579 34.8476V38.633H132.683V42.9354H141.99V38.633H140.069V34.8476L144.209 27.4944H145.306V23.3281H139.145V27.4944ZM165.798 42.9252H175.947V38.6262H165.798V42.9252ZM177.172 29.78C177.172 33.9735 174.676 36.6978 170.91 36.6978C167.144 36.6978 164.645 33.9735 164.645 29.78C164.645 25.5864 167.141 22.8894 170.91 22.8894C174.68 22.8894 177.172 25.5864 177.172 29.78ZM172.257 30.1609C172.257 27.5183 172.08 26.2122 170.91 26.2122C169.862 26.2122 169.56 27.3006 169.56 29.5895C169.56 32.1505 169.785 33.3477 170.91 33.3477C171.883 33.3477 172.257 32.341 172.257 30.1609ZM158.231 38.5786C156.535 38.5786 155.936 36.8338 155.936 33.1301C155.936 29.2086 156.535 27.3278 158.207 27.3278C159.553 27.3278 160.305 28.5284 160.305 30.8683V30.9772H163.621V23.3247H160.526V24.5763C160.075 24.0413 159.507 23.6137 158.863 23.3257C158.22 23.0376 157.519 22.8966 156.812 22.9132C152.918 22.9132 149.875 27.1067 149.875 33.4804C149.875 39.5003 152.769 43.3945 157.286 43.3945C161.803 43.3945 163.994 40.6431 164.046 35.6333H160.429C160.204 37.5651 159.405 38.5752 158.231 38.5752V38.5786ZM97.4974 20.6174H90.6265L90.6749 16.3185H92.0457L95.2613 5.20029H93.811V1.00675H105.109V5.20029H103.662L106.584 16.3185H107.979L107.927 20.6174H99.5015L99.55 16.3185H101.315L100.869 14.6519H96.2859L95.8636 16.3185H97.5493L97.4974 20.6174ZM97.4455 10.6488H100.052L99.1831 6.86343C99.1035 6.53692 98.9985 5.9372 98.8681 5.06425C98.7643 5.69005 98.6293 6.28864 98.4735 6.86343L97.4455 10.6488ZM115.912 21.08C120.44 21.08 122.994 18.3285 123.049 13.3153H119.228C118.993 15.2505 118.148 16.2572 116.912 16.2572C115.123 16.2572 114.489 14.5125 114.489 10.8087C114.489 6.88724 115.123 5.00643 116.885 5.00643C118.307 5.00643 119.097 6.20702 119.097 8.54697V8.6558H122.599V1.00335H119.335V2.25495C118.844 1.71325 118.238 1.28369 117.56 0.996394C116.882 0.709094 116.148 0.571008 115.41 0.591818C111.301 0.591818 108.089 4.78536 108.089 11.159C108.089 17.1789 111.146 21.0732 115.912 21.0732V21.08ZM127.054 5.20029H128.608V16.3117H126.791V20.614H136.244V16.3117H134.482V5.20029H136.033V8.6388H139.405V1.00675H123.735V8.6388H127.054V5.20029ZM149.207 21.0528C146.521 21.0528 144.517 20.1821 142.807 18.2469C141.201 16.4205 140.356 13.9717 140.356 11.0298C140.356 4.65612 143.887 0.571411 149.18 0.571411C154.472 0.571411 158.21 4.54729 158.21 10.9481C158.21 13.7812 157.342 16.2879 155.815 18.1108C154.105 20.1277 151.997 21.0528 149.207 21.0528ZM151.706 10.8121C151.706 6.67297 151.288 4.71054 149.283 4.71054C147.279 4.71054 146.836 6.67297 146.836 10.8121C146.836 14.9512 147.283 16.9137 149.283 16.9137C151.284 16.9137 151.706 14.9512 151.706 10.8121ZM167.916 20.6174H159.148V16.3151H160.703V5.20029H159.148V1.00675H167.916C173.105 1.00675 175.635 2.56105 175.635 6.29205C175.635 8.66261 174.476 10.2407 172.208 10.9753C174.922 11.4923 175.161 12.6079 175.161 15.1961V16.3117H176.528V20.614H169.55V15.8491C169.55 13.5602 169.052 12.7439 166.864 12.7439C166.708 12.7439 166.521 12.7711 166.31 12.7711V16.3117H167.916V20.614V20.6174ZM166.31 9.04013C166.538 9.06223 166.767 9.07132 166.995 9.06734C168.917 9.06734 169.813 8.49595 169.813 7.13552C169.813 5.77508 168.84 5.20029 166.76 5.20029H166.31V9.04013ZM180 2.31617C180.004 2.53701 179.962 2.7563 179.876 2.96048C179.79 3.16465 179.663 3.34936 179.502 3.50315C179.174 3.8239 178.732 4.00582 178.269 4.00991C177.813 4.00486 177.377 3.82433 177.055 3.50704C176.733 3.18976 176.55 2.76101 176.546 2.31277C176.546 2.08753 176.592 1.86462 176.68 1.65684C176.769 1.44906 176.898 1.2605 177.061 1.10198C177.219 0.945456 177.407 0.821736 177.615 0.738183C177.822 0.654629 178.045 0.61295 178.269 0.615625C178.498 0.612879 178.725 0.65543 178.937 0.740742C179.148 0.826053 179.341 0.952378 179.502 1.11218C179.823 1.43166 180.002 1.86348 180 2.31277V2.31617ZM179.647 2.31277C179.647 2.13534 179.612 1.95958 179.543 1.79558C179.474 1.63158 179.373 1.48257 179.245 1.35711C179.118 1.23165 178.966 1.13221 178.799 1.06449C178.632 0.996782 178.453 0.962133 178.273 0.962537C178.094 0.959077 177.916 0.9917 177.751 1.05839C177.585 1.12508 177.435 1.22442 177.31 1.35026C177.049 1.60522 176.901 1.95113 176.899 2.31277C176.898 2.48996 176.934 2.66541 177.004 2.8289C177.073 2.99239 177.175 3.14066 177.304 3.26507C177.43 3.3915 177.581 3.49183 177.747 3.56017C177.914 3.6285 178.092 3.66347 178.273 3.663C178.455 3.6627 178.635 3.62709 178.803 3.55822C178.971 3.48936 179.124 3.38858 179.252 3.26167C179.381 3.13869 179.482 2.99094 179.55 2.82766C179.618 2.66439 179.651 2.4891 179.647 2.31277ZM178.737 2.3944L179.145 3.19365H178.505L178.169 2.48963H178.114V3.19365H177.525V1.36387H178.294C178.833 1.36387 179.11 1.55773 179.11 1.90464C179.113 2.01593 179.077 2.12477 179.009 2.21404C178.942 2.30331 178.846 2.36795 178.737 2.3978V2.3944ZM178.508 1.93185C178.508 1.7822 178.411 1.72098 178.204 1.72098H178.114V2.15632H178.235C178.415 2.15632 178.508 2.07809 178.508 1.93525V1.93185Z" fill="black"></path> </g> <defs> <clipPath id="clip0_9357_8086"> <rect width="180" height="42.8571" fill="white" transform="translate(0 0.571411)"></rect> </clipPath> </defs> </svg>