<svg version="1.1" id="layer" xmlns="http://www.w3.org/2000/svg" xmlns:xlink="http://www.w3.org/1999/xlink" x="0px" y="0px" viewBox="0 0 652 652" style="enable-background:new 0 0 652 652;" xml:space="preserve">
	<path fill="#DF5C1F" id="XMLID_16_" d="M337.9,323.8c21.2-9.3,35.5-20,39.1-37.9c0.4,10.8,0.9,22.7-8.1,30.3
	C359.8,323.8,346.8,322.3,337.9,323.8z"></path>
	<path fill="#DF5C1F" id="XMLID_15_" d="M311.2,326.6c6.3-28.6,52.9-30.5,49.3-58.2c-2.2,10.9-12.1,13.1-29,22.5
	C314.7,300.4,313.5,312.3,311.2,326.6z"></path>
	<path fill="#DF5C1F" id="XMLID_14_" d="M313.9,344.8c0-29.5,16.5-32.5,32.7-44.8c16.2-12.2,22.7-18.2,26-41.3
	c2.1,21.3,0.1,35.2-17.2,47.6c-17.6,12.6-22.5,13.3-31,19.9C316.8,332.1,314.6,337.7,313.9,344.8L313.9,344.8z"></path>
	<path d="M484.5,336.3c-5.7-5.2-13.4-7.8-23.1-7.8c-12.9,0.2-22.1,4.7-27.6,13.4c-2.9,4.6-4.3,9.7-4.3,15.2c0,3.8,0.7,7.4,2.1,10.8
	c1.6,3.9,3.9,7.3,6.9,10c5.7,5.2,13.3,7.8,22.9,7.8c12.8,0,22.1-4.5,27.7-13.5c2.9-4.6,4.3-9.5,4.3-14.8
	C493.5,348.8,490.5,341.8,484.5,336.3L484.5,336.3z M479.6,364.8c-1.1,2.7-2.7,5-4.8,6.8c-3.5,3.1-8,4.7-13.3,4.7
	c-5.4,0-9.8-1.6-13.3-4.7c-4.2-3.7-6.3-8.6-6.3-14.6c0-6,2.1-10.8,6.3-14.6c3.5-3.1,8-4.7,13.3-4.7c5.4,0.1,9.8,1.6,13.4,4.7
	c4.2,3.6,6.3,8.5,6.3,14.8C481.1,359.9,480.6,362.4,479.6,364.8L479.6,364.8z M267.9,353.1v-23.6h-12.1v55.3h12.1v-19l8.4-6.7
	l21.2,25.8h15.2l-27.5-32.9l27.7-22.4h-16.1L267.9,353.1z M68,355.7c5-2.4,7.5-6.3,7.5-11.6c0-4.8-1.6-8.5-4.9-11.1
	c-1.7-1.3-3.6-2.2-5.8-2.8c-2.2-0.5-5.1-0.8-8.7-0.8H20.9v55.3h35.4c3.6,0,6.6-0.3,9-1c2.4-0.6,4.6-1.7,6.4-3.1
	c3.6-2.9,5.5-6.8,5.5-11.9C77.3,362.4,74.2,358.1,68,355.7L68,355.7z M33,338.6h21.4c3.2,0,5.6,0.5,6.9,1.5c1.4,1,2.1,2.7,2.1,4.9
	c0,2.3-0.7,4-2.2,5c-1.3,1-3.6,1.4-6.8,1.4H33C33,351.3,33,338.6,33,338.6z M62,374.1c-1.7,1.1-4.4,1.6-8.3,1.6H33.1v-15.2h20.7
	c3.9,0,6.7,0.5,8.3,1.6c1.9,1.2,2.9,3.2,2.9,6C64.9,370.8,64,372.8,62,374.1L62,374.1z M408,338.6h21.6v-9.1h-55.3v9.1h21.6v46.2
	H408L408,338.6z M582,351.7v-13.2h39v-9.1h-51.1v55.3h51.1v-9.1h-39v-15.2h26.7v-8.8H582z M245,368c0,0-2.1,1.6-7.1,4.3
	c-5.1,2.8-9.9,4.1-15.3,4.1c-6.4,0-11.4-1.6-15.2-4.8c-4.5-3.7-6.7-8.6-6.7-14.5s2.2-10.8,6.7-14.5c3.8-3.1,8.9-4.8,15.2-4.8
	c5.4,0,10.5,1.3,15.3,4.1c4.1,2.3,7.1,4.4,7.1,4.4l5-7.4l-5.7-3.6c-4.8-2.7-8.7-4.5-11.9-5.5c-3.1-0.9-6.9-1.4-11.4-1.4
	c-12,0-21,3.7-26.9,11.1c-4,4.9-5.9,10.8-5.9,17.5c0,4.9,1.1,9.4,3.3,13.5c1.9,3.6,4.5,6.5,7.8,9c5.6,4.1,12.8,6.2,21.6,6.2
	c4.4,0,8.2-0.5,11.4-1.4c3.2-0.9,8.1-3.2,11.8-5.4c3.7-2.3,5.6-3.8,5.6-3.8L245,368L245,368z M369.2,360.8c-1.1-2.2-2.5-3.9-4.4-5.2
	c-1.8-1.2-3.9-2.3-6.3-3c-2.3-0.7-5.4-1.2-9.3-1.7l-6.4-0.6c-4.3-0.4-7.1-0.8-8.4-1.2c-2.5-0.8-3.8-2.2-3.8-4.3
	c0-1.2,0.5-2.4,1.5-3.5c1-1.1,2.3-1.9,3.9-2.4c2.2-0.7,4.8-1.1,7.6-1.1c6.5,0,11.7,1.5,17.2,4.5c2.2,1.2,4.3,2.3,4.3,2.3l4.5-8.4
	c0,0-0.7-0.4-3.7-2.1c-4.4-2.4-9.7-3.9-12.8-4.7c-3.1-0.7-6.4-1.1-10-1.1c-8.5,0-14.9,2-19.1,6.1c-3.2,3.1-4.9,6.9-4.9,11.6
	c0,2.9,0.6,5.4,1.9,7.5c1.4,2.4,3.4,4.3,5.8,5.5c1.7,0.9,3.5,1.5,5.2,1.9c1.7,0.4,4.7,0.8,8.9,1.2l6.3,0.6c4.2,0.5,7,1,8.4,1.5
	c2,0.8,3,2.1,3,3.9c0,1.2-0.4,2.4-1.2,3.5c-0.9,1.1-1.9,2-3.4,2.7c-2.5,1.2-5.6,1.8-9.3,1.8c-3.3,0-6.8-0.5-10.5-1.7
	c-2.2-0.6-3.3-1.1-5.7-2.2c-2.4-1.1-6.7-3.4-6.7-3.4l-4,9l6.6,3.2c6.6,3,13.3,4.4,20.1,4.4c4.1,0,8-0.5,11.5-1.5
	c4.8-1.3,8.4-3.4,10.7-6.1c2.5-3,3.8-6.5,3.8-10.4C370.8,365.3,370.3,363,369.2,360.8L369.2,360.8z M125.8,375.7H95.6v-46.2H83.5
	v55.2h38L125.8,375.7z M164,329.5h-10l-26.5,55.3h12.2l6.1-14.1H171l6.3,14.1h14.1L164,329.5z M149.4,363l9.1-19.7l8.9,19.7H149.4z
	 M550.2,329.5V369l-39.6-39.6h-11.1v55.3h11.1v-39.6l39.6,39.6h11.1v-55.3H550.2z"></path>
</svg>