<svg aria-hidden="true" focusable="false" id="Layer_1" data-name="Layer 1" xmlns="http://www.w3.org/2000/svg" viewBox="0 0 504.93 72.55">
  <defs>
    <style>
      .cubcadet-cls-1 {
        fill: #ffc325;
        stroke: #ffc425;
        stroke-width: .39px;
      }
    </style>
  </defs>
  <path class="cubcadet-cls-1" d="M498.63,60.18c3.32,0,6.11,2.62,6.11,6.05s-2.79,6.12-6.11,6.12-6.14-2.62-6.14-6.12,2.8-6.05,6.14-6.05ZM498.63,71.45c2.82,0,5-2.24,5-5.22s-2.18-5.16-5-5.16-5.03,2.24-5.03,5.16,2.19,5.22,5.03,5.22ZM496.26,62.7h2.75c1.69,0,2.49.67,2.49,2.03,0,1.29-.81,1.82-1.87,1.94l2.04,3.14h-1.19l-1.93-3.06h-1.17v3.06h-1.1v-7.11ZM497.36,65.86h1.15c.98,0,1.87-.05,1.87-1.17,0-.94-.81-1.09-1.56-1.09h-1.46v2.26Z"></path>
  <g>
    <path class="cubcadet-cls-1" d="M175.67,50.6c6.66-12.43-2.13-28.83-17.9-25.39l10.44-23.6h-15.81l-29.63,66.4h16.32l.76-1.89c13.46,7.6,28.65-2.17,35.81-15.52ZM163.55,43.55c-.37,4.51-7.08,15.66-17.34,10.39-.67-.36-.47-1.31-.22-1.86,1.52-3.5,5.2-11.83,6.45-14.6,3.57-2.25,11.71-1.09,11.11,6.08Z"></path>
    <path class="cubcadet-cls-1" d="M489.03,23.67l5.74-12.64h-42.08l3.55-8.01h-8.93c-.61,0-1.18.3-1.49.82-3.96,6.7-13.23,7.52-16.45,7.48-.69,0-2.34-.02-2.34-.02l-5.2,12.28h8.62l-13.13,30.17s-32.75.03-32.9.03c-3.04,0-4.49-1.06-4.62-3.04-.2-3.09.8-6.48,3.1-9.69,4.57-6.38,12.36-6.38,15.87-5.47,3.81.99,4.82,6.88.56,6.88h-11.66c-1.4,1.14-3.31,5.57-2.92,7.93h15.71c10.66,0,13.28-7.63,13.15-11.34-.79-22.07-45.91-17.05-45.85,14.72h-7.12c-3.04,0-3.82-2.24-2.78-4.49,1.04-2.25,20.7-46.91,20.7-46.91h-16.29l-11.72,25.44c-8.83-6.83-37.36.38-37.81,25.99h-7.06c-2.91,0-3.54-2.2-2.58-4.52.96-2.31,10.79-24.18,10.79-24.18h-16.66l-1.47,3.08c-12.2-8-37.21,2.45-38.47,24.82,0,0-42.45.05-42.49.05-8.03,0-13.74-6.08-10.17-11.44,19.14-28.74,71.24-32.83,43.21-18.37h23.31c8.63-12.05,3.95-23.91-15.98-22.91-34.66,1.74-69.12,28.7-68.83,48.73.15,10.18,12.67,18.91,24.85,18.91h46.54l2.4-5.43c8.13,10.22,20.78,7.35,25.57.38,1.61,3.41,6.62,5.73,9,5.73h18.3l2.63-6.17c7.84,10.36,20.12,7.42,24.85.48,2.31,3.84,6.4,5.57,8.35,5.57h20.1s2.33-5.41,2.33-5.41c4.13,5.22,9.29,5.56,10.18,5.53h35.18s2.06-4.7,2.06-4.7c1.01,1.85,5.22,4.7,9.99,4.7s41.05,0,41.05,0l6.32-14.85h-37.85c-2.77,0-3.32-2.01-2.38-4.52.94-2.51,11.42-25.61,11.42-25.61h41.79ZM291.83,39.68c-1.52,3.5-5.2,11.82-6.46,14.6-3.57,2.25-11.7,1.09-11.11-6.08.37-4.51,7.08-15.65,17.34-10.38.66.36.47,1.31.22,1.86ZM346.28,39.68c-1.52,3.5-5.2,11.82-6.45,14.6-3.57,2.25-11.71,1.09-11.11-6.08.37-4.51,7.08-15.65,17.34-10.38.66.36.47,1.31.22,1.86Z"></path>
    <path class="cubcadet-cls-1" d="M61.73,23.23h23.27c7.21-9.1,6.45-24.6-15.98-22.91C31.43,3.16-.09,29.02.2,49.05c.15,10.18,12.68,18.91,24.85,18.91h51.25l2.13-4.97c1.46,2.17,3.99,4.56,8.19,4.97h14.19s1.76-3.75,2.47-5.17c1.17,1.69,4.08,5.18,8.81,5.18h7.26l6.69-14.92h-5.08c-1.72,0-2.38-1.78-1.55-3.62,1.27-2.8,11.02-24.18,11.02-24.18h-16.84s-12.29,27.27-12.47,27.79h-4.61c-1.85,0-2.88-1.51-1.98-3.63,1.09-2.58,10.95-24.16,10.95-24.16h-16.86l-11.62,26.07c-.01.06-.39.74-.58,1.73,0,0-47.72,0-47.77,0-8.02,0-13.34-5.83-10.17-11.44C33.99,14.14,89.67,7.75,61.73,23.23Z"></path>
  </g>
</svg>