<svg id="Layer_1" xmlns="http://www.w3.org/2000/svg" version="1.1" viewBox="0 0 320 54.7">
  <defs>
    <style>
      .ff0 {
        fill: #f99c24;
      }
      .ff1 {
        fill: #312d2c;
      }
    </style>
  </defs>
  <g>
    <polygon class="ff1" points="201.4 20.6 201.4 46.5 207.5 46.5 207.5 37.5 215.3 37.5 215.3 32.3 207.5 32.3 207.5 25.9 218.3 25.9 218.3 20.6 201.4 20.6"></polygon>
    <polygon class="ff1" points="222.9 20.6 222.9 46.5 239.6 46.5 239.6 41.2 228.9 41.2 228.9 20.6 222.9 20.6"></polygon>
    <path class="ff1" d="M254,25.7h.6l2.2,10.9h-5l2.2-10.9h0ZM249.4,20.6l-5.7,25.9h6.1l1-4.8h7l1,4.8h6.1l-5.6-25.9h-9.9Z"></path>
    <path class="ff1" d="M290.6,34.5c0-1.2.1-3.7.2-6.3-.6,2.5-1.1,4.8-1.4,6.1l-3.2,12.2h-6.8l-3.3-12.2c-.4-1.4-.9-3.9-1.5-6.5.1,2.7.2,5.2.2,6.5v12.1h-5.4v-25.8h8.1l5.2,19.3h.3l4.9-19.3h8.1v25.9h-5.3v-12h-.1Z"></path>
    <polygon class="ff1" points="301.6 20.6 318.1 20.6 318.1 25.7 307.6 25.7 307.6 30.9 315.2 30.9 315.2 36 307.6 36 307.6 41.4 318.1 41.4 318.1 46.5 301.6 46.5 301.6 20.6"></polygon>
    <polygon class="ff1" points="48.2 20.6 65 20.6 65 25.9 54.2 25.9 54.2 32.3 62 32.3 62 37.6 54.2 37.6 54.2 46.6 48.2 46.6 48.2 20.6"></polygon>
    <path class="ff1" d="M69.5,41.6v-16.2c0-3.1,1.7-4.7,4.3-4.7h10.8c3.3,0,4.4,2,4.4,5.4v15.4c0,3-1.7,5.1-4.9,5.1h-9.9c-2.6,0-4.7-1.6-4.7-5M83.1,26h-7.6v15.2h7.6v-15.2Z"></path>
    <path class="ff1" d="M94.7,46.6v-26h15c2.7,0,3.7,1.6,3.7,4.7v8.9c0,2.6-.8,4-2.6,4.4l2.6,7.9h-6l-2.4-7.6h-4.4v7.6h-5.9s0,.1,0,.1ZM107.5,26h-6.8v7.8h6.8v-7.8Z"></path>
    <path class="ff1" d="M131.8,28.9v-2.9h-7.1v15.4h7.2v-5.1h-4.2v-4.6h10v9.8c0,2.6-1.2,5.1-4.9,5.1h-9.1c-3.2,0-5-1.7-5-5.1v-16c0-3.5,1.8-4.7,4.7-4.7h9.6c3.5,0,4.6,1.8,4.6,5.3v2.9h-5.8v-.1h0Z"></path>
    <polygon class="ff1" points="143.3 20.6 159.9 20.6 159.9 25.8 149.4 25.8 149.4 31 157 31 157 36.1 149.4 36.1 149.4 41.4 159.9 41.4 159.9 46.6 143.3 46.6 143.3 20.6"></polygon>
    <path class="ff1" d="M186.2,38c.7-1.1,1.3-2.4,1.8-4l.1-.3-3.2-1-.1.2c-.3.9-.7,1.7-1,2.3l-4.3-4.9c-.5-.6-.8-1-.8-1.6,0-.7.9-.8,1.3-.8,1.2,0,2.3.4,3.3,1.1l.2.2,1.9-2.8-.2-.2c-1.6-1.1-3-1.8-5.1-1.8-3.2,0-5.2,1.7-5.2,4.4,0,1.3.5,2.4,1.5,3.5l.2.2c-2.2,1.2-3.2,2.7-3.2,4.8,0,3,2,4.7,5.7,4.7,1.9,0,3.5-.5,4.8-1.5l1.2,1.2h4.5s-3.4-3.7-3.4-3.7ZM178.8,35l2.9,3.2c-.6.3-1.3.5-2.1.5s-2.2-.2-2.2-1.5c-.1-.9.4-1.6,1.4-2.2"></path>
  </g>
  <g>
    <path class="ff0" d="M28.2,23.4s-1.7,4.3-6.8,7.1c-6.3,3.5-11.9,5.4-14.7,7-2.9,1.5-3.7,3.2-3.7,3.2l5.4,11.9h8l-5-11s6.8-1.6,11.3-5.3c6.5-5.5,5.5-12.9,5.5-12.9"></path>
    <path class="ff0" d="M21.6,14.3c-1.9,1.1-4.5,2.6-7.3,4.3C1,25.9,1.1,34.3,2.5,39.6c1.2-4.9,3.8-8.1,9.1-11.3,1.9-1.1,4.5-2.6,7.3-4.3,13.4-7.3,13.3-15.7,11.9-21-1.2,4.9-3.8,8.1-9.2,11.3"></path>
  </g>
</svg>